<svg xmlns="http://www.w3.org/2000/svg" viewBox="0 0 591.98 153.25"><defs><style>.cls-1{fill:#fff;}</style></defs><title>allianz</title><g id="Capa_2" data-name="Capa 2"><g id="svg39820"><g id="g39870"><path id="path37627" class="cls-1" d="M53.57,82.66H31.87L43.4,45.17ZM21.7,120.57l6.78-22.85h27.8l6.78,22.85H86.12L61.71,33.84c-1.36-5.69-4.07-7.53-10.17-7.53H17.63v7.8h2.71c4.07,0,6.11,1.29,6.11,4.41,0,2,0,3.26-2,7.93L0,120.57"/><path id="path37629" class="cls-1" d="M115.28,120.57V33.23c0-4.54-2.72-6.92-7.46-6.92h-21v7.8h1.35c4.07,0,6.1,1.7,6.1,5.36v81.1"/><path id="path37631" class="cls-1" d="M153.25,120.57V33.23c0-4.54-2.71-6.92-7.46-6.92h-21v7.8h1.36c4.06,0,6.1,1.7,6.1,5.36v81.1"/><path id="path37633" class="cls-1" d="M191.9,34.66c0-6.24-4.75-9.9-12.21-9.9-8.13,0-12.2,3.66-12.2,9.9s4.07,10.1,12.2,10.1c7.46,0,12.21-3.73,12.21-10.1m-.68,85.91V57c0-4.4-2.71-7-6.78-7h-21v7.66h1.36c4.07,0,5.42,1.7,5.42,5.56v57.37"/><path id="path37635" class="cls-1" d="M241.4,86.33v14.1c-4.07,4.07-8.81,6.37-12.88,6.37s-6.11-2-6.11-7.25c0-5.83,1.36-8.07,6.11-9.9,3.39-1.43,6.78-2.31,12.88-3.32M211.56,69.44l2-.81a50.55,50.55,0,0,1,19-4.27c6.78,0,8.81,2.23,8.81,8.47v1.76c-9.49,1.56-12.2,2.11-17.63,3.26a55.48,55.48,0,0,0-8.14,2.71c-8.81,3.53-12.88,10.31-12.88,21,0,13.35,5.42,19.73,17.63,19.73,4.75,0,9.49-1.09,12.88-3.26,3.39-1.56,4.75-2.37,8.82-6.1v2.17c0,4.41,2,6.51,6.1,6.51h20.34v-7.26h-.67q-6.11,0-6.11-5.49V73.17c0-18-6.1-24.14-23.73-24.14a71.59,71.59,0,0,0-16.95,2,50.72,50.72,0,0,0-14.24,5.42"/><path id="path37637" class="cls-1" d="M300.4,120.57V72.7c4.74-4.41,8.13-6.11,12.88-6.11s6.1,2,6.1,9.23v44.75h21V72.43c0-9.91-1.35-14.18-4.07-17.91-3.39-3.66-7.46-5.35-13.56-5.35-8.14,0-14.24,3-23.73,11.19v-3.8c0-4.41-2-6.58-6.1-6.58H272.59v7.66h.68c4.07,0,6.1,1.7,6.1,5.56v57.37"/><g id="g37643"><path id="path37645" class="cls-1" d="M405.5,107.07H374.31l29.84-42.58V50H359.39c-5.42,0-7.46,2.17-7.46,7.39V70.18h7.46V68.76c0-3.87,2-5.43,6.11-5.43h16.27l-30.51,42.59v14.65H405.5"/><path id="path37647" class="cls-1" d="M525.52,116.7V36.82c0-6.44-2.71-8.54-8.81-8.54H498.4v8.81h2c3.39,0,4.74,1.29,4.74,5.22V116.7Zm10.85,0H556V56.42c0-6.11-2.71-8.55-8.82-8.55H536.37Zm-42,0V47.87H483.48c-6.1,0-8.81,2.44-8.81,8.55V116.7Zm84.76-40.14c0,37.36-27.12,64.62-63.74,64.62s-63.74-27.26-63.74-64.62,27.13-64.63,63.74-64.63,63.74,27.26,63.74,64.63m12.89,0C592,32.82,559.43,0,515.35,0,472,0,438.73,32.82,438.73,76.56s33.23,76.69,76.62,76.69c44.08,0,76.63-32.82,76.63-76.69"/></g></g></g></g></svg>