<svg version="1.1"
	 xmlns="http://www.w3.org/2000/svg" xmlns:xlink="http://www.w3.org/1999/xlink" xmlns:a="http://ns.adobe.com/AdobeSVGViewerExtensions/3.0/"
	 x="0px" y="0px" width="1272.6px" height="378.3px" viewBox="0 0 1272.6 378.3"
	 style="overflow:scroll;enable-background:new 0 0 1272.6 378.3;" xml:space="preserve">
<style type="text/css">
	.st0{fill:#FFFFFF;}
</style>
<defs>
</defs>
<g>
	<g>
		<path class="st0" d="M160.6,17.7l-16.5,32.9c-4.5,9-4.5,19.6,0,28.6l140.7,281.4c5.4,10.8,16.5,17.7,28.6,17.7h32.9
			c23.8,0,39.3-25,28.6-46.3L217.8,17.7C206-5.9,172.4-5.9,160.6,17.7z"/>
		<path class="st0" d="M188.7,273.9H137l28.7-57.4c4.5-9,4.5-19.6,0-28.6l-16.4-33c-11.8-23.6-45.5-23.6-57.3,0L32.5,273.9L3.4,332
			c-10.6,21.3,4.8,46.3,28.6,46.3h176.9c23.8,0,39.2-25,28.6-46.3l-20.2-40.5C212,280.7,200.9,273.9,188.7,273.9z"/>
	</g>
	<g>
		<path class="st0" d="M705.1,246.8L705.1,246.8c-8.2,0-15.8-4.6-19.5-11.9l-16.4-32.1L615.3,97.2l-53.9,105.6l-16.4,32.1
			c-3.8,7.3-11.3,11.9-19.5,11.9h0c-16.4,0-27-17.3-19.5-31.9l6.2-12.1l83.6-164.1c8.1-16,31-16,39.1,0l83.6,164.1l6.2,12.1
			C732.1,229.5,721.5,246.8,705.1,246.8z"/>
		<path class="st0" d="M1002.5,47.6v177.5c0,11.9-9.7,21.6-21.6,21.6h-0.1c-11.9,0-21.6-9.7-21.6-21.6V91.9l-42.7,32.6l-22.2,17.2
			c-7.8,6-18.7,6-26.5,0l-22.2-17.2l-42.7-32.6v133.2c0,11.9-9.7,21.6-21.6,21.6h-0.1c-11.9,0-21.6-9.7-21.6-21.6V47.6
			c0-17.9,20.6-28.1,34.8-17.2l8.6,6.6L867.8,87c7.8,6,18.6,6,26.4,0l64.9-49.9l8.6-6.6C981.9,19.6,1002.5,29.7,1002.5,47.6z"/>
		<circle class="st0" cx="614.5" cy="186.4" r="21.1"/>
		<path class="st0" d="M1073.2,131.6c-3.3,41.7,34,75.9,80.1,75.9l54.3,0c11.9,0,21.6-8.8,21.6-19.6v-3c0-10.8-9.7-19.6-21.6-19.6
			h-34.9c-11.9,0-21.6-8.8-21.6-19.6v-0.1c0-10.8,9.7-19.6,21.6-19.6h78.3c11.9,0,21.6,8.8,21.6,19.6v81.7
			c0,10.8-9.7,19.6-21.6,19.6h-97.5c-66.4,0-122.4-47.4-123.9-107.7c-1.5-61.9,53.6-112.7,121.5-112.7h99.9
			c11.9,0,21.6,8.8,21.6,19.6v0.1c0,10.8-9.7,19.6-21.6,19.6h-99.9C1109.9,65.8,1076,94.9,1073.2,131.6z"/>
		<g>
			<path class="st0" d="M521.2,337.8c0-2-0.7-3.7-2.2-4.9c-1.4-1.2-4-2.4-7.6-3.5c-6.3-1.8-11.1-4-14.3-6.5
				c-3.2-2.5-4.8-5.9-4.8-10.3c0-4.3,1.8-7.9,5.5-10.6c3.7-2.8,8.4-4.1,14.2-4.1c5.8,0,10.6,1.5,14.2,4.6c3.7,3.1,5.4,6.9,5.3,11.4
				l-0.1,0.2h-10.3c0-2.4-0.8-4.4-2.5-5.9c-1.6-1.5-3.9-2.3-6.9-2.3c-2.8,0-5,0.6-6.6,1.9c-1.6,1.3-2.3,2.9-2.3,4.8
				c0,1.8,0.8,3.3,2.5,4.4c1.7,1.2,4.5,2.4,8.6,3.7c5.8,1.6,10.3,3.8,13.3,6.4c3,2.7,4.5,6.2,4.5,10.5c0,4.5-1.8,8.1-5.4,10.7
				c-3.6,2.6-8.3,3.9-14.2,3.9c-5.8,0-10.8-1.5-15.1-4.5c-4.3-3-6.4-7.1-6.3-12.5l0.1-0.2h10.3c0,3.1,1,5.5,2.9,6.9
				c1.9,1.5,4.6,2.2,8.1,2.2c2.9,0,5.1-0.6,6.6-1.8C520.4,341.4,521.2,339.8,521.2,337.8z"/>
			<path class="st0" d="M572.4,328.3h-21.9v15.1h25.6v8.2h-36.3v-52.9H576v8.2h-25.6v13.3h21.9V328.3z"/>
			<path class="st0" d="M623.3,344.4c-1.6,2.1-4,3.9-7.4,5.6c-3.3,1.6-7.5,2.4-12.6,2.4c-6.5,0-11.8-2-15.9-6
				c-4.1-4-6.1-9.2-6.1-15.7v-11.1c0-6.4,2-11.6,5.9-15.7c3.9-4,9-6.1,15.2-6.1c6.4,0,11.4,1.6,14.8,4.7c3.4,3.1,5.2,7.3,5.3,12.4
				l-0.1,0.2h-10c-0.2-2.8-1.1-5-2.7-6.7c-1.6-1.6-3.9-2.5-7-2.5c-3.2,0-5.9,1.3-7.9,3.8s-3,5.7-3,9.7v11.1c0,4,1,7.3,3.1,9.8
				c2.1,2.5,4.8,3.8,8.3,3.8c2.5,0,4.5-0.3,6-0.8c1.5-0.5,2.6-1.1,3.4-1.9v-9.8h-9.4v-7.3h20V344.4z"/>
			<path class="st0" d="M674.3,298.7v35.1c0,5.9-2,10.5-5.9,13.7c-3.9,3.2-9.1,4.8-15.4,4.8c-6.3,0-11.4-1.6-15.3-4.8
				c-3.9-3.2-5.8-7.8-5.8-13.7v-35.1h10.7v35.1c0,3.5,0.9,6.1,2.8,7.8c1.9,1.7,4.4,2.6,7.7,2.6c3.3,0,5.9-0.9,7.8-2.6
				s2.8-4.3,2.8-7.8v-35.1H674.3z"/>
			<path class="st0" d="M694.2,330.4v21.2h-10.6v-52.9h20c6,0,10.8,1.4,14.2,4.1c3.4,2.8,5.1,6.6,5.1,11.5c0,2.7-0.7,5.1-2.1,7.1
				c-1.4,2-3.5,3.6-6.3,4.8c3.1,0.9,5.4,2.5,6.7,4.6c1.4,2.2,2.1,4.8,2.1,8v3.9c0,1.5,0.2,3,0.6,4.6c0.4,1.6,1.1,2.8,2.1,3.6v0.8
				h-10.9c-1-0.8-1.6-2.1-1.9-3.9c-0.3-1.8-0.4-3.5-0.4-5.2v-3.7c0-2.6-0.7-4.7-2.2-6.2c-1.4-1.5-3.5-2.2-6.1-2.2H694.2z
				 M694.2,322.3h9.2c3,0,5.2-0.6,6.7-1.9c1.5-1.3,2.2-3.1,2.2-5.6c0-2.4-0.7-4.4-2.2-5.8c-1.5-1.4-3.6-2.1-6.5-2.1h-9.3V322.3z"/>
			<path class="st0" d="M775.4,329.9c0,6.5-2.1,11.9-6.2,16.1c-4.1,4.2-9.4,6.4-16,6.4c-6.5,0-11.8-2.1-15.9-6.4
				c-4.1-4.2-6.1-9.6-6.1-16.1v-9.5c0-6.5,2-11.8,6.1-16.1c4.1-4.3,9.4-6.4,15.9-6.4c6.6,0,11.9,2.1,16,6.4
				c4.1,4.3,6.2,9.6,6.2,16.1V329.9z M764.8,320.3c0-4.1-1-7.5-3.1-10.2c-2.1-2.6-4.9-4-8.5-4s-6.4,1.3-8.4,4c-2,2.6-3,6-3,10.2v9.6
				c0,4.2,1,7.6,3,10.3c2,2.6,4.8,4,8.4,4c3.6,0,6.5-1.3,8.5-4c2-2.6,3.1-6.1,3.1-10.3V320.3z"/>
			<path class="st0" d="M812.3,337.8c0-2-0.7-3.7-2.2-4.9c-1.4-1.2-4-2.4-7.6-3.5c-6.3-1.8-11.1-4-14.3-6.5
				c-3.2-2.5-4.8-5.9-4.8-10.3c0-4.3,1.8-7.9,5.5-10.6c3.7-2.8,8.4-4.1,14.2-4.1c5.8,0,10.6,1.5,14.2,4.6c3.7,3.1,5.4,6.9,5.3,11.4
				l-0.1,0.2h-10.3c0-2.4-0.8-4.4-2.5-5.9c-1.6-1.5-3.9-2.3-6.9-2.3c-2.8,0-5,0.6-6.6,1.9c-1.6,1.3-2.3,2.9-2.3,4.8
				c0,1.8,0.8,3.3,2.5,4.4c1.7,1.2,4.5,2.4,8.6,3.7c5.8,1.6,10.3,3.8,13.3,6.4c3,2.7,4.5,6.2,4.5,10.5c0,4.5-1.8,8.1-5.4,10.7
				c-3.6,2.6-8.3,3.9-14.2,3.9c-5.8,0-10.8-1.5-15.1-4.5c-4.3-3-6.4-7.1-6.3-12.5l0.1-0.2h10.3c0,3.1,1,5.5,2.9,6.9
				c1.9,1.5,4.6,2.2,8.1,2.2c2.9,0,5.1-0.6,6.6-1.8C811.5,341.4,812.3,339.8,812.3,337.8z"/>
			<path class="st0" d="M846.7,337.3c0-2.9,0.8-5.3,2.4-7.4c1.6-2.1,4-4.2,7.2-6.5c-1.6-2.2-2.9-4.3-3.7-6.1
				c-0.8-1.8-1.2-3.7-1.2-5.6c0-4.2,1.3-7.5,3.9-10.1c2.6-2.5,6.1-3.8,10.5-3.8c3.9,0,7,1.2,9.4,3.6c2.4,2.4,3.6,5.3,3.6,8.7
				c0,2.4-0.6,4.5-1.8,6.5c-1.2,2-2.8,3.7-4.9,5.2l-3.4,2.4l10,11.7c0.9-1.5,1.6-3,2-4.7c0.5-1.7,0.7-3.5,0.7-5.4h7.9
				c0,3.3-0.4,6.4-1.2,9.2c-0.8,2.8-2.1,5.3-3.8,7.5l7.6,8.9l-0.1,0.2h-11.8l-2.8-3.2c-2.1,1.3-4.2,2.3-6.4,3c-2.2,0.7-4.5,1-7,1
				c-5.3,0-9.5-1.4-12.6-4.2S846.7,341.8,846.7,337.3z M864.6,344.2c1.3,0,2.6-0.2,3.9-0.5c1.3-0.3,2.5-0.8,3.7-1.5l-10.9-12.6
				l-0.7,0.5c-1.2,1.2-2.1,2.3-2.5,3.4c-0.4,1.1-0.7,2.2-0.7,3.3c0,2.2,0.7,3.9,2,5.3C860.7,343.5,862.4,344.2,864.6,344.2z
				 M860.9,311.6c0,1,0.3,2.1,0.8,3.2c0.5,1.1,1.3,2.3,2.3,3.7l3.1-2c1.4-0.9,2.3-1.8,2.7-2.7c0.5-0.9,0.7-1.9,0.7-3
				c0-1.2-0.4-2.3-1.3-3.2c-0.9-0.9-2-1.4-3.5-1.4c-1.6,0-2.8,0.5-3.6,1.6C861.3,308.7,860.9,310,860.9,311.6z"/>
			<path class="st0" d="M959.7,351.6h-10.6l-21.4-36.2l-0.2,0v36.1h-10.6v-52.9h10.6l21.4,36.1l0.2,0v-36.1h10.6V351.6z"/>
			<path class="st0" d="M1002.2,328.3h-21.9v15.1h25.6v8.2h-36.3v-52.9h36.2v8.2h-25.6v13.3h21.9V328.3z"/>
			<path class="st0" d="M1053.1,344.4c-1.6,2.1-4,3.9-7.4,5.6c-3.3,1.6-7.5,2.4-12.6,2.4c-6.5,0-11.8-2-15.9-6
				c-4.1-4-6.1-9.2-6.1-15.7v-11.1c0-6.4,2-11.6,5.9-15.7c3.9-4,9-6.1,15.2-6.1c6.4,0,11.4,1.6,14.8,4.7c3.4,3.1,5.2,7.3,5.3,12.4
				l-0.1,0.2h-10c-0.2-2.8-1.1-5-2.7-6.7c-1.6-1.6-3.9-2.5-7-2.5c-3.2,0-5.9,1.3-7.9,3.8c-2,2.5-3,5.7-3,9.7v11.1c0,4,1,7.3,3.1,9.8
				c2.1,2.5,4.8,3.8,8.3,3.8c2.5,0,4.5-0.3,6-0.8c1.5-0.5,2.6-1.1,3.4-1.9v-9.8h-9.4v-7.3h20V344.4z"/>
			<path class="st0" d="M1104.8,329.9c0,6.5-2.1,11.9-6.2,16.1c-4.1,4.2-9.4,6.4-16,6.4c-6.5,0-11.8-2.1-15.9-6.4
				c-4.1-4.2-6.1-9.6-6.1-16.1v-9.5c0-6.5,2-11.8,6.1-16.1c4.1-4.3,9.4-6.4,15.9-6.4c6.6,0,11.9,2.1,16,6.4
				c4.1,4.3,6.2,9.6,6.2,16.1V329.9z M1094.2,320.3c0-4.1-1-7.5-3.1-10.2c-2.1-2.6-4.9-4-8.5-4s-6.4,1.3-8.4,4c-2,2.6-3,6-3,10.2
				v9.6c0,4.2,1,7.6,3,10.3c2,2.6,4.8,4,8.4,4c3.6,0,6.5-1.3,8.5-4c2-2.6,3.1-6.1,3.1-10.3V320.3z"/>
			<path class="st0" d="M1153.1,333.6l0.1,0.2c0.1,5.7-1.6,10.2-5.2,13.6c-3.6,3.3-8.5,5-14.9,5c-6.4,0-11.6-2-15.5-6.1
				c-4-4.1-6-9.4-6-15.8v-10.5c0-6.4,1.9-11.7,5.8-15.8c3.9-4.1,8.9-6.2,15.1-6.2c6.5,0,11.7,1.7,15.3,5c3.7,3.4,5.5,7.9,5.4,13.7
				l-0.1,0.2h-10.3c0-3.5-0.8-6.2-2.5-8c-1.7-1.9-4.3-2.8-7.8-2.8c-3.2,0-5.7,1.3-7.6,3.9c-1.9,2.6-2.8,5.9-2.8,9.9v10.6
				c0,4,1,7.4,2.9,9.9c2,2.6,4.6,3.9,8,3.9c3.3,0,5.8-0.9,7.4-2.7c1.6-1.8,2.4-4.4,2.4-7.9H1153.1z"/>
			<path class="st0" d="M1172,351.6h-10.6v-52.9h10.6V351.6z"/>
			<path class="st0" d="M1225.1,329.9c0,6.5-2.1,11.9-6.2,16.1c-4.1,4.2-9.4,6.4-16,6.4c-6.5,0-11.8-2.1-15.9-6.4
				c-4.1-4.2-6.1-9.6-6.1-16.1v-9.5c0-6.5,2-11.8,6.1-16.1c4.1-4.3,9.4-6.4,15.9-6.4c6.6,0,11.9,2.1,16,6.4
				c4.1,4.3,6.2,9.6,6.2,16.1V329.9z M1214.5,320.3c0-4.1-1-7.5-3.1-10.2c-2.1-2.6-4.9-4-8.5-4s-6.4,1.3-8.4,4c-2,2.6-3,6-3,10.2
				v9.6c0,4.2,1,7.6,3,10.3c2,2.6,4.8,4,8.4,4c3.6,0,6.5-1.3,8.5-4c2-2.6,3.1-6.1,3.1-10.3V320.3z"/>
			<path class="st0" d="M1262,337.8c0-2-0.7-3.7-2.2-4.9c-1.4-1.2-4-2.4-7.6-3.5c-6.3-1.8-11.1-4-14.3-6.5
				c-3.2-2.5-4.8-5.9-4.8-10.3c0-4.3,1.8-7.9,5.5-10.6c3.7-2.8,8.4-4.1,14.2-4.1c5.8,0,10.6,1.5,14.2,4.6c3.7,3.1,5.4,6.9,5.3,11.4
				l-0.1,0.2H1262c0-2.4-0.8-4.4-2.5-5.9c-1.6-1.5-3.9-2.3-6.9-2.3c-2.8,0-5,0.6-6.6,1.9c-1.6,1.3-2.3,2.9-2.3,4.8
				c0,1.8,0.8,3.3,2.5,4.4c1.7,1.2,4.5,2.4,8.6,3.7c5.8,1.6,10.3,3.8,13.3,6.4c3,2.7,4.5,6.2,4.5,10.5c0,4.5-1.8,8.1-5.4,10.7
				c-3.6,2.6-8.3,3.9-14.2,3.9c-5.8,0-10.8-1.5-15.1-4.5c-4.3-3-6.4-7.1-6.3-12.5l0.1-0.2h10.3c0,3.1,1,5.5,2.9,6.9
				c1.9,1.5,4.6,2.2,8.1,2.2c2.9,0,5.1-0.6,6.6-1.8C1261.2,341.4,1262,339.8,1262,337.8z"/>
		</g>
	</g>
</g>
</svg>
