<svg xmlns="http://www.w3.org/2000/svg" viewBox="0 0 172 86.59"><defs><style>.cls-1{fill:#fff;}</style></defs><title>axa_colpatria</title><g id="Capa_2" data-name="Capa 2"><g id="svg416"><g id="g472"><path id="path336" class="cls-1" d="M10.58,80.66H4.05L2.37,86.1H0L6,68.21H8.6l6,17.89H12.16ZM10,78.78,9.09,76c-.29-1-.59-2-.89-3s-.59-2-.89-3.06H7.22c-.3,1-.6,2.07-.89,3.06s-.6,2-.89,3l-.89,2.76Z"/><path id="path338" class="cls-1" d="M20.17,76.91l-4.85-8.6h2.47l2.47,4.54c.2.4.5.79.7,1.19s.49.89.69,1.38h.1c.29-.49.49-1,.69-1.38L23,72.85l2.37-4.54h2.38L22.93,77l5.24,9.1H25.7l-2.57-4.84c-.2-.4-.49-.89-.69-1.39a11.83,11.83,0,0,0-.79-1.48h-.1c-.3.59-.49,1.09-.69,1.48s-.5.89-.69,1.39L17.6,86.1H15.22Z"/><path id="path340" class="cls-1" d="M39,80.66H32.42L30.74,86.1H28.47l6-17.89h2.57l6,17.89H40.63Zm-.6-1.88L37.46,76c-.29-1-.59-2-.89-3s-.59-2-.88-3.06h-.1c-.3,1-.6,2.07-.89,3.06s-.6,2-.89,3l-.89,2.76Z"/><path id="path342" class="cls-1" d="M49.43,77.2A11.13,11.13,0,0,1,50,73.35a8.07,8.07,0,0,1,1.68-2.87,9.19,9.19,0,0,1,2.47-1.88A8.69,8.69,0,0,1,57.33,68a5.41,5.41,0,0,1,2.87.69,8.54,8.54,0,0,1,2,1.58l-1.29,1.49a6,6,0,0,0-1.58-1.19,4.42,4.42,0,0,0-2-.49,5.41,5.41,0,0,0-2.27.49,4.25,4.25,0,0,0-1.78,1.48,7.33,7.33,0,0,0-1.19,2.28,9.52,9.52,0,0,0-.39,3,10.25,10.25,0,0,0,.39,3.07,7.05,7.05,0,0,0,1.09,2.27,8,8,0,0,0,1.68,1.48,5.79,5.79,0,0,0,2.28.5,5.41,5.41,0,0,0,2.27-.5,5.21,5.21,0,0,0,1.88-1.48L62.57,84A7,7,0,0,1,60.2,85.9a6,6,0,0,1-3.06.69A8.5,8.5,0,0,1,54,86a6.37,6.37,0,0,1-2.47-1.78,9.24,9.24,0,0,1-1.68-2.87A30.39,30.39,0,0,1,49.43,77.2Z"/><path id="path344" class="cls-1" d="M71.47,86.4a6.31,6.31,0,0,1-3.07-.7A6.25,6.25,0,0,1,66,83.83a10.78,10.78,0,0,1-1.58-3,12.89,12.89,0,0,1,0-7.71A9,9,0,0,1,66,70.28,6.86,6.86,0,0,1,68.4,68.5a8.26,8.26,0,0,1,6.13,0A7.21,7.21,0,0,1,77,70.28a8.87,8.87,0,0,1,1.59,2.87,12.89,12.89,0,0,1,0,7.71,8.5,8.5,0,0,1-1.59,3,7.69,7.69,0,0,1-2.47,1.87A6,6,0,0,1,71.47,86.4Zm0-2a5.31,5.31,0,0,0,2.17-.5,3.88,3.88,0,0,0,1.68-1.48,8,8,0,0,0,1.09-2.27,9.53,9.53,0,0,0,.4-3.07,9.26,9.26,0,0,0-.4-3,7,7,0,0,0-1.09-2.28,4.48,4.48,0,0,0-1.68-1.38A5.3,5.3,0,0,0,71.47,70a5.38,5.38,0,0,0-2.18.49,4.63,4.63,0,0,0-1.68,1.38,7,7,0,0,0-1.08,2.28,9.26,9.26,0,0,0-.4,3,9.93,9.93,0,0,0,.4,3.07,6.84,6.84,0,0,0,1.08,2.27,4,4,0,0,0,1.68,1.48A5.39,5.39,0,0,0,71.47,84.42Z"/><path id="path346" class="cls-1" d="M82.64,68.21h2.27V84.12h7.81v2H82.64Z"/><path id="path348" class="cls-1" d="M95.59,68.21H101a11.41,11.41,0,0,1,2.66.29,6.67,6.67,0,0,1,2.08.89A4.09,4.09,0,0,1,107.06,71a6.5,6.5,0,0,1,0,5,4,4,0,0,1-1.39,1.68,5.11,5.11,0,0,1-2.07,1,11.56,11.56,0,0,1-2.67.29H97.86V86H95.59Zm5.24,9a5.53,5.53,0,0,0,3.46-.89,3.14,3.14,0,0,0,1.08-2.77,2.88,2.88,0,0,0-1.18-2.66,6.34,6.34,0,0,0-3.46-.79h-3V77.2Z"/><path id="path350" class="cls-1" d="M117.83,80.66h-6.52l-1.68,5.44h-2.28l6-17.89H116l6,17.89h-2.47Zm-.59-1.88L116.35,76c-.3-1-.6-2-.89-3s-.6-2-.89-3.06h-.1c-.3,1-.59,2.07-.89,3.06s-.59,2-.89,3l-.89,2.76Z"/><path id="path352" class="cls-1" d="M126.73,70.09h-5.44V68.21h13.15v1.88H129V86h-2.27Z"/><path id="path354" class="cls-1" d="M147.19,86.1l-4.35-7.51h-3.26V86.1H137.3V68.21h5.54a9.74,9.74,0,0,1,2.47.29,5.41,5.41,0,0,1,2,.89A3.39,3.39,0,0,1,148.57,71a5.8,5.8,0,0,1-.59,5.74,5.58,5.58,0,0,1-2.87,1.68l4.55,7.81h-2.47Zm-7.61-9.39h3a4.87,4.87,0,0,0,3.17-.89,3,3,0,0,0,1.08-2.57,2.8,2.8,0,0,0-1.08-2.47,5.76,5.76,0,0,0-3.17-.69h-3Z"/><path id="path356" class="cls-1" d="M152.82,68.21h2.28V86.1h-2.28Z"/><path id="path358" class="cls-1" d="M167.85,80.66h-6.53l-1.68,5.44h-2.27l6-17.89H166l6,17.89h-2.47Zm-.5-1.88L166.46,76c-.29-1-.59-2-.89-3s-.59-2-.89-3.06h-.09c-.3,1-.6,2.07-.89,3.06s-.6,2-.89,3l-.89,2.76Z"/><path id="path360" class="cls-1" d="M39,37.17a4.72,4.72,0,0,1-.1-1.58c0-.1,0-.2-.1,0-.59,1.38-4.35,5.93-4.35,5.93h5.93S39.14,38,39,37.17Z"/><path id="path362" class="cls-1" d="M16.21,37.17a4.72,4.72,0,0,1-.1-1.58c0-.1,0-.2-.1,0-.59,1.38-4.35,5.93-4.35,5.93H17.6C17.5,41.52,16.41,38,16.21,37.17Z"/><path id="path364" class="cls-1" d="M26.59,47.15a27.89,27.89,0,0,1-1.09-3l-1.58,2.07,1,3.17Z"/><path id="path366" class="cls-1" d="M36.77,29.36H33.41L56.05,0H0V51.8l.1-.1c.1-.1,3.85-4.65,7.21-9.29,3.07-4,5.94-7.91,6.23-8.21A26.93,26.93,0,0,0,15,31.34h4.54a11,11,0,0,0,.3,2.17c.1.4,2.87,9.49,3,9.59l1.59-2L21.75,33s-.6-1.49-.79-1.78h5.33a6.16,6.16,0,0,0,.2,1.48l1.39,4.74s3.65-4.54,3.85-4.84a3.63,3.63,0,0,0,.5-1.38h4.44a16,16,0,0,0-2.27,2.37c-.49.59-5.14,6.52-5.14,6.52s.4,1.39.59,2.08a.75.75,0,0,1,.1.39,2.32,2.32,0,0,0,.3-.39c1.18-1.58,6.72-8.7,7-9.39a9.92,9.92,0,0,0,.89-1.68h4.35s.09,1.28.19,1.68l2.67,9.39c1,2.87,3.17,10.38,4.06,11.07H43.79a7.24,7.24,0,0,0-.3-2c-.19-.89-2.27-7.41-2.27-7.41h-8.9l-1.38,2s1.68,5.24,1.78,5.53c.2.5,1,1.88,1,1.88H28.37s-.1-.79-.2-1.19a14.59,14.59,0,0,0-.49-1.78,16.15,16.15,0,0,0-1.58,2,8.15,8.15,0,0,1-.5.89H21.45s-.1-.79-.2-1.18a14.25,14.25,0,0,0-.59-1.88,12.48,12.48,0,0,0-1.48,2.07l-.5,1H14.53s1.19-1.09,1.58-1.58c.69-.79,3.26-4.15,3.26-4.15l-1-3.56H9.59s-5,6.62-5.24,6.82a14.19,14.19,0,0,0-1.68,2.57H0v5.93H59.41V0Z"/><path id="path368" class="cls-1" d="M121.49,18a33.6,33.6,0,0,0-9.1,1c-5,3.56-7.41,7.41-7.41,10.77,0,5.84,7.31,10.78,16.51,11.47a47.31,47.31,0,0,0,9.19-.79c4.84-3.56,7.41-7.41,7.41-10.77C138.09,23.53,130.88,18.68,121.49,18Z"/><path id="path370" class="cls-1" d="M114,5.73c2.67-.49,10-1.28,11.08-1.28a206,206,0,0,1,24.61.69A75.27,75.27,0,0,0,121.59,0C93.81,0,71.37,13.34,71.37,29.66c0,8.4,5.83,15.91,15.32,21.45,9.69.69,26.49-3.27,26.49-3.27,9.69-2.27,13.94-5.14,16.12-6.42-1.78.49-8.7,2.27-14.24,2.27C105.47,43.69,81,40,81,27,81,14.63,99.54,8.4,114,5.73Z"/><path id="path372" class="cls-1" d="M156.58,8.4c-9.69-.79-26.49,3.07-26.49,3.07-9.2,2.27-14,5.14-16.12,6.62,1.59-.69,11.77-2.27,14.24-2.27,9.49-.5,33.9,3.55,33.9,16.7,0,14.14-26.19,20.46-40.52,21.85-1.29.2-2.57.2-3.56.29a195.48,195.48,0,0,1-24.42-.49,74.4,74.4,0,0,0,28,5C149.36,59,172,45.87,172,29.56c-.1-8.31-6-15.72-15.42-21.16Z"/></g></g></g></svg>