<svg xmlns="http://www.w3.org/2000/svg" viewBox="0 0 359.82 43.4"><defs><style>.cls-1{fill:#fff;}</style></defs><title>chubb</title><g id="Capa_2" data-name="Capa 2"><g id="svg3053"><path id="path4083" class="cls-1" d="M186,6.09V36.8H150V6.09h-6.9V34.9c0,5.33,3.21,8.5,9.37,8.5h31.07c6.16,0,9.36-3.17,9.36-8.5V6.09Z"/><path id="path4081" class="cls-1" d="M76.18,21.32V6.09H69.41V43.4h6.77V27.92H112.8V43.4h6.78V6.09H112.8V21.32Z"/><path id="path3031" class="cls-1" d="M49.44,12.69V6.09H9.25C3.08,6.09,0,9.26,0,14.59V34.9c0,5.33,3.08,8.5,9.25,8.5H49.44V36.8H6.9V12.69Z"/><path id="path3033" class="cls-1" d="M358.1,10.15a5.33,5.33,0,0,1-4.2,1.78A4.84,4.84,0,0,1,350,10.15a5.12,5.12,0,0,1-1.72-4.06A5.64,5.64,0,0,1,350,1.78,5.72,5.72,0,0,1,353.9,0a6.31,6.31,0,0,1,4.2,1.78,6.73,6.73,0,0,1,1.72,4.31A6.09,6.09,0,0,1,358.1,10.15Zm-7.65-7.61A4.32,4.32,0,0,0,349,6.09a5.08,5.08,0,0,0,1.47,3.55,4.8,4.8,0,0,0,3.45,1.53,5,5,0,0,0,3.71-1.53,4.84,4.84,0,0,0,1.23-3.55c0-1.52-.25-2.79-1.23-3.55A4.94,4.94,0,0,0,353.9,1,4.79,4.79,0,0,0,350.45,2.54Zm3.45.25a3.66,3.66,0,0,1,1.74.25,1.4,1.4,0,0,1,1,1.53,1.17,1.17,0,0,1-.74,1.27c-.24.25-.49.25-.74.5a1.28,1.28,0,0,1,1,.51,1.56,1.56,0,0,1,.25,1v.51c0,.25.24.25.24.5v.51h-1V9.14h0l-.25-.26v-.5c0-.77,0-1.27-.49-1.53a11,11,0,0,0-1.24-.25h-1V9.39h-1V2.79Zm1.24,1c-.25-.26-.74-.26-1.48-.26h-1V5.84h2.22c.5-.26.5-.51.5-1s0-.76-.25-1Z"/><path class="cls-1" d="M268.37,17.77V14c0-5-3.08-7.87-9.86-7.87h-42V43.4h42c6.78,0,9.86-2.92,9.86-7.87V31.22A3.32,3.32,0,0,0,267,28.3l-4.43-3.81,4.43-3.8A3.33,3.33,0,0,0,268.37,17.77Zm-6.9,19.29h-38.1V27.79h38.1Zm0-15.61h-38.1v-9h38.1Z"/><path class="cls-1" d="M342,17.77V14c0-5-3.09-7.87-9.74-7.87H290.07V43.4h42.16c6.65,0,9.74-2.92,9.74-7.87V31.22a3.32,3.32,0,0,0-1.36-2.92l-4.44-3.81,4.44-3.8A3.33,3.33,0,0,0,342,17.77Zm-6.91,19.29H297V27.79h38.09Zm0-15.61H297v-9h38.09Z"/></g></g></svg>