<svg xmlns="http://www.w3.org/2000/svg" viewBox="0 0 396.48 113.23"><defs><style>.cls-1{fill:#fff;}</style></defs><title>equidad</title><g id="Capa_2" data-name="Capa 2"><g id="svg416"><g id="g612"><g id="g84"><path id="path54" class="cls-1" d="M307.72,2c-.3.3-.4,2.84-.4,9.33,0,8.88-.1,9.81-1.09,9.11a12.88,12.88,0,0,0-2.21-.94c-2.51-.93-10.61-1-13-.06a13.57,13.57,0,0,0-4.89,2.74c-5.42,4.59-7,15.17-3.44,23.1a13.86,13.86,0,0,0,9.42,7.56c2.61.67,10,.54,12.3-.2,5.81-1.94,9-5.45,10.44-11.55.4-1.77.53-5.42.63-20.15.1-12.52,0-18.21-.23-18.68s-.7-.67-3.74-.67C309.3,1.63,308,1.77,307.72,2Zm-4.89,21.82c3.44,2,4.49,4.95,4.49,12.42,0,4.62-.1,5.39-.79,7.4-1.45,4-3.8,5.52-8.63,5.49-3.86,0-6.21-1.11-7.57-3.48-1.71-3-2.41-10.68-1.35-15.2,1.35-5.82,4-7.9,9.65-7.63A7.55,7.55,0,0,1,302.83,23.86Z"/><path id="path56" class="cls-1" d="M388.75,1.93c-.13.17-.3,4.45-.43,9.54a88.88,88.88,0,0,1-.43,9.24c-.13,0-1.16-.4-2.35-.87-1.75-.73-2.81-.9-6.08-1-6.18-.27-9.32.67-12.79,3.88-4.3,4-6.11,12.12-4.26,19.21,1.65,6.36,5.15,9.75,11.53,11.12,6.12,1.3,13.65-.2,17.32-3.48,2.74-2.45,4.29-6,4.86-11.38.46-4.46.49-35,0-35.89-.33-.57-.73-.63-3.8-.63a12.14,12.14,0,0,0-3.6.29Zm-5.06,21.9a8.67,8.67,0,0,1,2.18,1.81c.4.53.8,1.07,1,1.27.86,1.07,1.49,4.89,1.52,9,0,9.9-2.28,13.15-9.45,13.19-4.36,0-6.61-1.14-8.06-4.22-1.79-3.85-1.86-12.72-.1-17,1.58-3.88,4-5.25,8.75-5.08,2.19.09,2.95.26,4.2,1Z"/><path id="path58" class="cls-1" d="M267.2,2.64a6.22,6.22,0,0,0-2.51,4.18,5.33,5.33,0,0,0,5.16,5.26A4.85,4.85,0,0,0,274.77,7a4.75,4.75,0,0,0-2.41-4.42A5.51,5.51,0,0,0,267.2,2.64Z"/><path id="path60" class="cls-1" d="M151.09,19c-8.76,1.34-14.21,7.9-14.21,17.1,0,7,3.2,12,9.58,15a18.12,18.12,0,0,0,7.77,2A24.42,24.42,0,0,0,164,51.74c3.5-1.3,8.55-5.25,8.16-6.36-.07-.23-.79-.37-1.82-.37a4.2,4.2,0,0,0-2.77.91c-1.26,1-2.85,1.67-5.89,2.64-2.87.91-8.62.74-10.94-.3a11.63,11.63,0,0,1-4.89-4.42c-.82-1.67-1.45-4.55-1.22-5.55l.2-.84H159c10.81,0,14.31-.1,14.94-.44s.82-.6.79-2.67c-.06-4.35-1.82-8-5.42-11.38A11.8,11.8,0,0,0,164.4,20c-2.61-1-3.33-1.07-7.2-1.17a50.33,50.33,0,0,0-6.11.14Zm10.54,4.85c3,1.54,4.43,3.45,5.29,7,.66,2.71,1.16,2.61-11.34,2.51l-10.93-.1.09-1.51a8.49,8.49,0,0,1,2-5.29A10.67,10.67,0,0,1,152.15,23a25.55,25.55,0,0,1,4.43-.16C159.35,23,160.15,23.12,161.63,23.86Z"/><path id="path62" class="cls-1" d="M228.82,18.94c-3.3.13-3.4.13-3.6.94-.39,1.67.13,19,.7,21.59,1,4.75,3.07,7.76,6.8,9.84,6.41,3.55,15.83,2.71,21.12-1.88,2.25-1.94,4.43-6.32,5-10.1.16-1.14.26-6.13.23-11.08l-.1-9L256.65,19a23.92,23.92,0,0,0-3.8,0l-1.49.17-.2,11.21c-.1,6.16-.29,11.58-.43,12-1,3.42-2.94,5.63-5.52,6.36a14.52,14.52,0,0,1-7.5-.33c-2.11-1-3-2.11-3.83-5-.43-1.48-.53-3.72-.53-12.62,0-10.18-.17-12.32-.93-12.09-.13,0-1.74.14-3.6.17Z"/><path id="path64" class="cls-1" d="M266.43,19.11c-.3.3-.4,4.58-.4,17.2,0,15,.07,16.84.53,17a29.32,29.32,0,0,0,6.88,0c.46-.17.52-2,.52-17.21s-.06-17-.52-17.21C272.48,18.54,266.86,18.67,266.43,19.11Z"/><path id="path66" class="cls-1" d="M195.09,19.54c-5,1-7.5,2.21-10.41,5.16-3.2,3.28-4.59,7.26-4.42,12.68a17.29,17.29,0,0,0,2.34,8.84c2.74,4.62,6.41,6.73,12.66,7.26,3.43.31,6.54,1.31,7.66,2.48,1.43,1.54,1.92,4.29,1.92,10.92,0,.4,6.45.53,7.41.16.43-.16.49-.7.36-3.28-.26-5.29-.4-5.72-1.92-7.36a12.35,12.35,0,0,0-2.54-2.15c-1.55-.83-1.59-1.87,0-2,2.54-.27,7.07-3.65,8.82-6.63a18.86,18.86,0,0,0,2.25-7.5c.82-8.94-4.3-16.2-12.86-18.24a31.86,31.86,0,0,0-11.24-.34ZM204,23.86c4.13,1.11,6.55,4,7.47,9a22.1,22.1,0,0,1,.23,4.69c-.49,6.86-3.47,10.57-9.28,11.61-4.46.77-8.5-.2-11.07-2.71S188,41.74,188,36.55a26.41,26.41,0,0,1,.46-5.26,10.25,10.25,0,0,1,7-7.33,19.9,19.9,0,0,1,8.56-.1Z"/><path id="path68" class="cls-1" d="M332.34,19.68a14.12,14.12,0,0,0-10.51,10.91,26.31,26.31,0,0,0,.69,13.46A13.33,13.33,0,0,0,332,52.72c3.41.8,8,.8,10,0,1.62-.64,4.89-3.85,4.89-4.79a.48.48,0,0,1,.5-.47c.36,0,.5.64.56,2.91l.1,3,3.14.1a23.92,23.92,0,0,0,3.93-.1l.76-.2-.16-10.44c-.17-11.19-.3-12.19-2-15.81s-5.62-6.36-10.28-7.36a30.14,30.14,0,0,0-11.1.14Zm11,4.58c2.94,1.47,4.3,4.52,4.53,10.08.39,9.54-3.11,14.83-9.88,14.83-4.6,0-7.31-2.15-8.43-6.67-.79-3.24-.5-11.55.5-14.09a7.72,7.72,0,0,1,5.61-5.05A14.68,14.68,0,0,1,343.31,24.26Z"/><path id="path70" class="cls-1" d="M299.58,56.33A7.23,7.23,0,0,1,298,58.44l-1.16,1-3.9-.16c-4.32-.17-6.31.23-8.88,1.77-1.52.87-4.47,4-4.47,4.69a1.41,1.41,0,0,1-.49.83,6.57,6.57,0,0,0-1,2.18c-.89,2.78-.43,4.15,2,6.13.79.63.66,1.4-.27,1.4a1.81,1.81,0,0,0-1.19.5,1.38,1.38,0,0,1-.82.51c-.4,0-1.85,1-4,2.84-1.55,1.27-1.52,2.71.07,3.82.93.63,1.82.87,4.4,1.07,4.23.37,6.08.8,8.62,2,3.77,1.88,4.89,4.66,3.9,9.51a16,16,0,0,1-7.6,10.78c-3.63,2.21-9.19,2.81-13.75,1.47a20.17,20.17,0,0,1-2.81-1c-3-2.25-3.83-3-3.83-3.42a2.41,2.41,0,0,0-.5-1.14c-.59-.8-.66-3.91-.09-4.48a1.63,1.63,0,0,1,1.08-.4,1.46,1.46,0,0,0,.83-2.68c-.86-.47-3.17.43-4.36,1.7-1.39,1.48-1.13,4.22.79,7.87,1.36,2.58,5.55,5.62,9.19,6.7,8.06,2.34,17.38-1.51,21.21-8.81s4.27-13.25,1-16.4c-1.32-1.27-4.23-2.78-5.35-2.78a6.53,6.53,0,0,1-1.56-.33,15.34,15.34,0,0,0-3.76-.47c-2.88-.14-5.29-.84-5.29-1.57s2.48-2.68,6.08-4.46a22.85,22.85,0,0,1,4.46-1.87,13.15,13.15,0,0,0,3.14-1.17c4.36-2.08,7.8-6.8,7.93-10.78,0-1.64.13-1.81,1.92-3.52,1.95-1.87,2.61-3.28,1.92-4.11s-1.33-.58-1.82.63Zm-5.82,5.42c1.65,1.41,1.42,3.38-.76,6.67-1.95,2.87-5.32,4.88-8.26,4.88-2.21,0-2.77-.37-3.67-2.37-.59-1.31-.59-1.41,0-3.28a10.2,10.2,0,0,1,9.61-6.73c1.72,0,2.18.1,3,.83Z"/><path id="path72" class="cls-1" d="M268.76,59.48c-4.2.57-7.37,2.31-10.71,6-3.74,4-5.68,7.46-6.51,11.38-.46,2.37-.23,4,.83,5.35,1.19,1.54,2,1.91,4.46,2,2.84.16,5.45-.57,8.92-2.61,2.61-1.51,5.55-3.69,5.32-3.92s-2.21.63-3,1.27a8,8,0,0,1-1.75,1,3.66,3.66,0,0,0-1.32.81,8.37,8.37,0,0,1-2.85,1.17c-3.27,1-5.12.84-6.51-.5-.89-.87-.95-1.11-.95-3.52V75.34l1.58-.57a18.32,18.32,0,0,0,2.12-.87,3,3,0,0,1,.95-.3c1,0,6.68-3.28,9.23-5.35,4.32-3.52,5.58-5.12,5.22-6.93-.21-1-3.11-2.11-5.06-1.84ZM271,61.75c.66.64.66.67-.1,2-1.59,2.54-9.45,7.83-13,8.73a2.25,2.25,0,0,0-1.09.54.86.86,0,0,1-.66.3c-1.49,0,.76-4.22,4.19-7.77,2.42-2.48,5.95-4.28,8.46-4.28a3.13,3.13,0,0,1,2.22.53Z"/><path id="path74" class="cls-1" d="M237.35,60.51c-4.72,1.58-7.27,3.86-7.27,6.43,0,1.71,3,4.39,7.4,6.63s5.29,3.25,5.06,5.32c-.33,3-2.41,4.59-6,4.59s-5.81-.87-7.69-2.78a15.49,15.49,0,0,1-1.89-2.21c-.33-.6-.39-.57-.92.27s-.57.9.46,2.51a9.35,9.35,0,0,0,6.25,4c2.08.37,5.78.2,6.44-.33a4.84,4.84,0,0,1,1.16-.51c2.14-.63,4.42-3.24,5.12-5.79a3.5,3.5,0,0,0-.17-3c-.76-1.71-2.41-2.91-7.2-5.36-3.57-1.77-5.69-3.48-5.69-4.51,0-1.44,3.54-3.32,7.7-4.15,2.45-.47,3.14-.51,4.3-.14,2,.6,2.58.6,3,0,.66-1-.16-1.34-4.26-1.47-3.17-.11-4.26,0-5.75.49Z"/><path id="path76" class="cls-1" d="M385.26,60.51c-4.83,1.58-7.77,4.42-7.14,6.9a8.06,8.06,0,0,0,3.34,3.75,27.61,27.61,0,0,1,2.48,1.34c2.58,1.5,3.14,1.77,3.47,1.77a8.21,8.21,0,0,1,2,1.51c1.55,1.37,1.71,1.64,1.68,2.88a4.92,4.92,0,0,1-2.91,4.25c-3.66,1.94-11.2-.5-12.52-4-.43-1.17-.76-1.14-1.29.1-.43.93-.4,1.1.66,2.44a7.94,7.94,0,0,0,4.39,3.32,14,14,0,0,0,8.76.13c2.61-.94,5.09-3.48,5.59-5.82a9.05,9.05,0,0,0,.16-2.75c-.33-1.54-2.64-3.41-7-5.59-5.26-2.65-6.35-3.48-6.35-4.89s.93-2.31,4.17-3.35c3.66-1.2,6.54-1.47,8.19-.77,1.46.64,2.51.44,2.51-.43s-1.28-1.31-4.95-1.31A15.84,15.84,0,0,0,385.26,60.51Z"/><path id="path78" class="cls-1" d="M322.84,60.65A18.34,18.34,0,0,0,321.68,64c-1.25,4.65-3.17,7.49-8.19,12.11-4.83,4.49-7.47,6.2-9.55,6.2-1.86,0-2.05-.34-1.62-2.72a29.92,29.92,0,0,1,2.31-7.16c.59-1.3,1.26-2.88,1.49-3.55a34.52,34.52,0,0,1,1.78-3.65,11.41,11.41,0,0,0,1.36-3c0-1-1.26-1.17-2.18-.3s-3.14,5.39-4.6,9.34c-.29.84-.69,1.81-.86,2.18a53,53,0,0,0-1.95,6.49c-.82,3.65-.39,4.38,2.58,4.38,3.54,0,7.8-2.64,12.82-8,2.42-2.55,3.38-2.88,3-1.11-.93,4.45-.89,6.7.1,8l.53.74,1.09-.67c.85-.54,1.05-.84.85-1.27-.46-.94-.26-5.09.33-7.6a64.87,64.87,0,0,1,2.75-8.81A24,24,0,0,0,325.05,61c-.13-.74-1.68-.94-2.21-.3Z"/><path id="path80" class="cls-1" d="M363.74,60.88c-3.14.41-5.95,2-9.35,5.49a19,19,0,0,0-4.4,5.89C346.59,79.33,347.85,84,353.2,84c2.61,0,4-.47,7.1-2.34a35,35,0,0,0,8-7.37,20.43,20.43,0,0,0,4.36-9.44c.17-1.47.1-1.9-.43-2.57-1.19-1.51-4-1.95-8.46-1.38Zm4.7,2c1.48.77,1.88,2,1.38,4.42-.86,3.75-6.41,11-9.91,12.92-4.07,2.17-6,2.34-7.63.67-1.86-1.88-1.76-5,.32-9.17,2.25-4.52,5.76-7.74,9.69-8.87,2.71-.77,4.59-.77,6.14,0Z"/><path id="path82" class="cls-1" d="M344.55,61.55a2,2,0,0,1-1.16.67c-1,0-4.42,2.58-7,5.33a19.72,19.72,0,0,1-2.88,2.71c-.4,0-.43-1.91-.07-2.14a28.24,28.24,0,0,0,2.19-5.63c.26-1.17-.07-1.34-1.66-.77-1.19.4-1.32.57-1.81,2.38-.3,1.1-1.23,3.78-2.05,6s-1.75,4.69-2.05,5.52c-1.62,4.69-2.12,6.36-2.22,7.23s0,1,.8,1.08c1.06.13,1.22-.14,2.44-3.82,1.39-4.18,2.15-5.42,5.62-9,4.53-4.66,5.75-5.69,8-6.87,3.31-1.67,4.76-1.24,3.51,1-1,1.77-.2,2.74,1.05,1.34a8.27,8.27,0,0,0,1.62-4.86c-.2-.77-.36-.83-2-.83-1.32,0-1.88.16-2.35.66Z"/></g><path id="path86" class="cls-1" d="M60.63,14.58A109,109,0,0,1,61.45.16C60.14.16,59,0,57.68,0a29.72,29.72,0,0,0-3.77.16,112.73,112.73,0,0,1,.82,14.42c0,56.54-26.38,72.27-42.6,76.69a58.22,58.22,0,0,0,91.1,0C87,86.85,60.63,71.12,60.63,14.58m-10.32-1A129.7,129.7,0,0,0,49.65.49C21.63,4.26,0,28,0,56.53A50.49,50.49,0,0,0,1.15,67.68c17.2-4.1,49.16-16.88,49.16-54.08M65.55.49c28,3.77,49.65,27.53,49.65,56a50.49,50.49,0,0,1-1.15,11.15C96.68,63.58,64.89,50.8,64.89,13.6c0-5.41.33-9.83.65-13.11"/></g></g></g></svg>