<svg version="1.1"
	 xmlns="http://www.w3.org/2000/svg" xmlns:xlink="http://www.w3.org/1999/xlink" xmlns:a="http://ns.adobe.com/AdobeSVGViewerExtensions/3.0/"
	 x="0px" y="0px" width="781.7px" height="680.1px" viewBox="0 0 781.7 680.1"
	 style="overflow:scroll;enable-background:new 0 0 781.7 680.1;" xml:space="preserve">
<style type="text/css">
	.st0{fill:#FFE867;}
</style>
<defs>
</defs>
<g>
	<g>
		<path class="st0" d="M364.5,12.6l-11.7,23.5c-3.2,6.4-3.2,14,0,20.4l100.4,200.9c3.9,7.7,11.8,12.6,20.4,12.6h23.5
			c17,0,28-17.9,20.4-33.1L405.4,12.6C397-4.2,372.9-4.2,364.5,12.6z"/>
		<path class="st0" d="M384.6,195.5h-37l20.5-40.9c3.2-6.4,3.2-14,0-20.4l-11.7-23.5c-8.4-16.9-32.4-16.9-40.9,0l-42.4,84.9
			L252.3,237c-7.6,15.2,3.5,33.1,20.4,33.1H399c17,0,28-17.9,20.4-33l-14.4-28.9C401.2,200.4,393.3,195.5,384.6,195.5z"/>
	</g>
	<g>
		<path class="st0" d="M214.2,574.5L214.2,574.5c-8.2,0-15.8-4.6-19.5-11.9l-16.4-32.1l-53.9-105.6L70.5,530.5l-16.4,32.1
			c-3.8,7.3-11.3,11.9-19.5,11.9h0c-16.4,0-27-17.3-19.5-31.9l6.2-12.1l83.6-164.1c8.1-16,31-16,39.1,0l83.6,164.1l6.2,12.1
			C241.2,557.2,230.6,574.5,214.2,574.5z"/>
		<path class="st0" d="M511.6,375.3v177.5c0,11.9-9.7,21.6-21.6,21.6h-0.1c-11.9,0-21.6-9.7-21.6-21.6V419.6l-42.7,32.6l-22.2,17.2
			c-7.8,6-18.7,6-26.5,0l-22.2-17.2l-42.7-32.6v133.2c0,11.9-9.7,21.6-21.6,21.6h-0.1c-11.9,0-21.6-9.7-21.6-21.6V375.3
			c0-17.9,20.6-28.1,34.8-17.2l8.6,6.6l64.9,49.9c7.8,6,18.6,6,26.4,0l64.9-49.9l8.6-6.6C491,347.3,511.6,357.4,511.6,375.3z"/>
		<circle class="st0" cx="123.5" cy="514.1" r="21.1"/>
		<path class="st0" d="M582.3,459.3c-3.3,41.7,34,75.9,80.1,75.9h54.3c11.9,0,21.6-8.8,21.6-19.6v-3c0-10.8-9.7-19.6-21.6-19.6
			h-34.9c-11.9,0-21.6-8.8-21.6-19.6v-0.1c0-10.8,9.7-19.6,21.6-19.6h78.3c11.9,0,21.6,8.8,21.6,19.6v81.7
			c0,10.8-9.7,19.6-21.6,19.6h-97.5c-66.4,0-122.4-47.4-123.9-107.7c-1.5-61.9,53.6-112.7,121.5-112.7h99.9
			c11.9,0,21.6,8.8,21.6,19.6v0.1c0,10.8-9.7,19.6-21.6,19.6h-99.9C619,393.5,585.1,422.6,582.3,459.3z"/>
		<g>
			<path class="st0" d="M30.3,665.5c0-2-0.7-3.7-2.2-4.9c-1.4-1.2-4-2.4-7.6-3.5c-6.3-1.8-11.1-4-14.3-6.5
				c-3.2-2.5-4.8-5.9-4.8-10.3c0-4.3,1.8-7.9,5.5-10.6c3.7-2.8,8.4-4.1,14.2-4.1c5.8,0,10.6,1.5,14.2,4.6c3.7,3.1,5.4,6.9,5.3,11.4
				l-0.1,0.2H30.3c0-2.4-0.8-4.4-2.5-5.9c-1.6-1.5-3.9-2.3-6.9-2.3c-2.8,0-5,0.6-6.6,1.9c-1.6,1.3-2.3,2.9-2.3,4.8
				c0,1.8,0.8,3.3,2.5,4.4c1.7,1.2,4.5,2.4,8.6,3.7c5.8,1.6,10.3,3.8,13.3,6.4c3,2.7,4.5,6.2,4.5,10.5c0,4.5-1.8,8.1-5.4,10.7
				c-3.6,2.6-8.3,3.9-14.2,3.9c-5.8,0-10.8-1.5-15.1-4.5s-6.4-7.1-6.3-12.5l0.1-0.2h10.3c0,3.1,1,5.5,2.9,6.9
				c1.9,1.5,4.6,2.2,8.1,2.2c2.9,0,5.1-0.6,6.6-1.8C29.5,669.1,30.3,667.5,30.3,665.5z"/>
			<path class="st0" d="M81.5,656H59.5v15.1h25.6v8.2H48.9v-52.9h36.2v8.2H59.5v13.3h21.9V656z"/>
			<path class="st0" d="M132.3,672.1c-1.6,2.1-4,3.9-7.4,5.6c-3.3,1.6-7.5,2.4-12.6,2.4c-6.5,0-11.8-2-15.9-6
				c-4.1-4-6.1-9.2-6.1-15.7v-11.1c0-6.4,2-11.6,5.9-15.7c3.9-4,9-6.1,15.2-6.1c6.4,0,11.4,1.6,14.8,4.7c3.4,3.1,5.2,7.3,5.3,12.4
				l-0.1,0.2h-10c-0.2-2.8-1.1-5-2.7-6.7c-1.6-1.6-3.9-2.5-7-2.5c-3.2,0-5.9,1.3-7.9,3.8c-2,2.5-3,5.7-3,9.7v11.1c0,4,1,7.3,3.1,9.8
				c2.1,2.5,4.8,3.8,8.3,3.8c2.5,0,4.5-0.3,6-0.8c1.5-0.5,2.6-1.1,3.4-1.9v-9.8h-9.4v-7.3h20V672.1z"/>
			<path class="st0" d="M183.4,626.4v35.1c0,5.9-2,10.5-5.9,13.7c-3.9,3.2-9.1,4.8-15.4,4.8c-6.3,0-11.4-1.6-15.3-4.8
				c-3.9-3.2-5.8-7.8-5.8-13.7v-35.1h10.7v35.1c0,3.5,0.9,6.1,2.8,7.8c1.9,1.7,4.4,2.6,7.7,2.6c3.3,0,5.9-0.9,7.8-2.6
				s2.8-4.3,2.8-7.8v-35.1H183.4z"/>
			<path class="st0" d="M203.2,658.1v21.2h-10.6v-52.9h20c6,0,10.8,1.4,14.2,4.1c3.4,2.8,5.1,6.6,5.1,11.5c0,2.7-0.7,5.1-2.1,7.1
				c-1.4,2-3.5,3.6-6.3,4.8c3.1,0.9,5.4,2.5,6.7,4.6c1.4,2.2,2.1,4.8,2.1,8v3.9c0,1.5,0.2,3,0.6,4.6c0.4,1.6,1.1,2.8,2.1,3.6v0.8
				h-10.9c-1-0.8-1.6-2.1-1.9-3.9c-0.3-1.8-0.4-3.5-0.4-5.2v-3.7c0-2.6-0.7-4.7-2.2-6.2c-1.4-1.5-3.5-2.2-6.1-2.2H203.2z M203.2,650
				h9.2c3,0,5.2-0.6,6.7-1.9c1.5-1.3,2.2-3.1,2.2-5.6c0-2.4-0.7-4.4-2.2-5.8c-1.5-1.4-3.6-2.1-6.5-2.1h-9.3V650z"/>
			<path class="st0" d="M284.4,657.6c0,6.5-2.1,11.9-6.2,16.1c-4.1,4.2-9.4,6.4-16,6.4c-6.5,0-11.8-2.1-15.9-6.4
				c-4.1-4.2-6.1-9.6-6.1-16.1v-9.5c0-6.5,2-11.8,6.1-16.1c4.1-4.3,9.4-6.4,15.9-6.4c6.6,0,11.9,2.1,16,6.4
				c4.1,4.3,6.2,9.6,6.2,16.1V657.6z M273.8,648c0-4.1-1-7.5-3.1-10.2c-2.1-2.6-4.9-4-8.5-4c-3.6,0-6.4,1.3-8.4,4c-2,2.6-3,6-3,10.2
				v9.6c0,4.2,1,7.6,3,10.3c2,2.6,4.8,4,8.4,4c3.6,0,6.5-1.3,8.5-4c2-2.6,3.1-6.1,3.1-10.3V648z"/>
			<path class="st0" d="M321.3,665.5c0-2-0.7-3.7-2.2-4.9c-1.4-1.2-4-2.4-7.6-3.5c-6.3-1.8-11.1-4-14.3-6.5
				c-3.2-2.5-4.8-5.9-4.8-10.3c0-4.3,1.8-7.9,5.5-10.6c3.7-2.8,8.4-4.1,14.2-4.1c5.8,0,10.6,1.5,14.2,4.6c3.7,3.1,5.4,6.9,5.3,11.4
				l-0.1,0.2h-10.3c0-2.4-0.8-4.4-2.5-5.9c-1.6-1.5-3.9-2.3-6.9-2.3c-2.8,0-5,0.6-6.6,1.9c-1.6,1.3-2.3,2.9-2.3,4.8
				c0,1.8,0.8,3.3,2.5,4.4c1.7,1.2,4.5,2.4,8.6,3.7c5.8,1.6,10.3,3.8,13.3,6.4c3,2.7,4.5,6.2,4.5,10.5c0,4.5-1.8,8.1-5.4,10.7
				c-3.6,2.6-8.3,3.9-14.2,3.9c-5.8,0-10.8-1.5-15.1-4.5c-4.3-3-6.4-7.1-6.3-12.5l0.1-0.2h10.3c0,3.1,1,5.5,2.9,6.9
				c1.9,1.5,4.6,2.2,8.1,2.2c2.9,0,5.1-0.6,6.6-1.8C320.6,669.1,321.3,667.5,321.3,665.5z"/>
			<path class="st0" d="M355.8,665c0-2.9,0.8-5.3,2.4-7.4c1.6-2.1,4-4.2,7.2-6.5c-1.6-2.2-2.9-4.3-3.7-6.1c-0.8-1.8-1.2-3.7-1.2-5.6
				c0-4.2,1.3-7.5,3.9-10.1c2.6-2.5,6.1-3.8,10.5-3.8c3.9,0,7,1.2,9.4,3.6c2.4,2.4,3.6,5.3,3.6,8.7c0,2.4-0.6,4.5-1.8,6.5
				c-1.2,2-2.8,3.7-4.9,5.2l-3.4,2.4l10,11.7c0.9-1.5,1.6-3,2-4.7c0.5-1.7,0.7-3.5,0.7-5.4h7.9c0,3.3-0.4,6.4-1.2,9.2
				c-0.8,2.8-2.1,5.3-3.8,7.5l7.6,8.9l-0.1,0.2h-11.8l-2.8-3.2c-2.1,1.3-4.2,2.3-6.4,3s-4.5,1-7,1c-5.3,0-9.5-1.4-12.6-4.2
				C357.4,673.1,355.8,669.5,355.8,665z M373.7,671.9c1.3,0,2.6-0.2,3.9-0.5c1.3-0.3,2.5-0.8,3.7-1.5l-10.9-12.6l-0.7,0.5
				c-1.2,1.2-2.1,2.3-2.5,3.4c-0.4,1.1-0.7,2.2-0.7,3.3c0,2.2,0.7,3.9,2,5.3C369.7,671.2,371.5,671.9,373.7,671.9z M369.9,639.3
				c0,1,0.3,2.1,0.8,3.2c0.5,1.1,1.3,2.3,2.3,3.7l3.1-2c1.4-0.9,2.3-1.8,2.7-2.7c0.5-0.9,0.7-1.9,0.7-3c0-1.2-0.4-2.3-1.3-3.2
				c-0.9-0.9-2-1.4-3.5-1.4c-1.6,0-2.8,0.5-3.6,1.6C370.4,636.4,369.9,637.7,369.9,639.3z"/>
			<path class="st0" d="M468.8,679.3h-10.6l-21.4-36.2l-0.2,0v36.1H426v-52.9h10.6l21.4,36.1l0.2,0v-36.1h10.6V679.3z"/>
			<path class="st0" d="M511.3,656h-21.9v15.1H515v8.2h-36.3v-52.9h36.2v8.2h-25.6v13.3h21.9V656z"/>
			<path class="st0" d="M562.2,672.1c-1.6,2.1-4,3.9-7.4,5.6c-3.3,1.6-7.5,2.4-12.6,2.4c-6.5,0-11.8-2-15.9-6
				c-4.1-4-6.1-9.2-6.1-15.7v-11.1c0-6.4,2-11.6,5.9-15.7c3.9-4,9-6.1,15.2-6.1c6.4,0,11.4,1.6,14.8,4.7c3.4,3.1,5.2,7.3,5.3,12.4
				l-0.1,0.2h-10c-0.2-2.8-1.1-5-2.7-6.7c-1.6-1.6-3.9-2.5-7-2.5c-3.2,0-5.9,1.3-7.9,3.8s-3,5.7-3,9.7v11.1c0,4,1,7.3,3.1,9.8
				c2.1,2.5,4.8,3.8,8.3,3.8c2.5,0,4.5-0.3,6-0.8c1.5-0.5,2.6-1.1,3.4-1.9v-9.8h-9.4v-7.3h20V672.1z"/>
			<path class="st0" d="M613.9,657.6c0,6.5-2.1,11.9-6.2,16.1c-4.1,4.2-9.4,6.4-16,6.4c-6.5,0-11.8-2.1-15.9-6.4
				c-4.1-4.2-6.1-9.6-6.1-16.1v-9.5c0-6.5,2-11.8,6.1-16.1c4.1-4.3,9.4-6.4,15.9-6.4c6.6,0,11.9,2.1,16,6.4
				c4.1,4.3,6.2,9.6,6.2,16.1V657.6z M603.3,648c0-4.1-1-7.5-3.1-10.2c-2.1-2.6-4.9-4-8.5-4c-3.6,0-6.4,1.3-8.4,4c-2,2.6-3,6-3,10.2
				v9.6c0,4.2,1,7.6,3,10.3c2,2.6,4.8,4,8.4,4c3.6,0,6.5-1.3,8.5-4c2-2.6,3.1-6.1,3.1-10.3V648z"/>
			<path class="st0" d="M662.1,661.3l0.1,0.2c0.1,5.7-1.6,10.2-5.2,13.6c-3.6,3.3-8.5,5-14.9,5c-6.4,0-11.6-2-15.5-6.1
				c-4-4.1-6-9.4-6-15.8v-10.5c0-6.4,1.9-11.7,5.8-15.8c3.9-4.1,8.9-6.2,15.1-6.2c6.5,0,11.7,1.7,15.3,5s5.5,7.9,5.4,13.7l-0.1,0.2
				h-10.3c0-3.5-0.8-6.2-2.5-8c-1.7-1.9-4.3-2.8-7.8-2.8c-3.2,0-5.7,1.3-7.6,3.9c-1.9,2.6-2.8,5.9-2.8,9.9v10.6c0,4,1,7.4,2.9,9.9
				c2,2.6,4.6,3.9,8,3.9c3.3,0,5.8-0.9,7.4-2.7c1.6-1.8,2.4-4.4,2.4-7.9H662.1z"/>
			<path class="st0" d="M681,679.3h-10.6v-52.9H681V679.3z"/>
			<path class="st0" d="M734.2,657.6c0,6.5-2.1,11.9-6.2,16.1c-4.1,4.2-9.4,6.4-16,6.4c-6.5,0-11.8-2.1-15.9-6.4
				c-4.1-4.2-6.1-9.6-6.1-16.1v-9.5c0-6.5,2-11.8,6.1-16.1c4.1-4.3,9.4-6.4,15.9-6.4c6.6,0,11.9,2.1,16,6.4
				c4.1,4.3,6.2,9.6,6.2,16.1V657.6z M723.6,648c0-4.1-1-7.5-3.1-10.2c-2.1-2.6-4.9-4-8.5-4c-3.6,0-6.4,1.3-8.4,4c-2,2.6-3,6-3,10.2
				v9.6c0,4.2,1,7.6,3,10.3c2,2.6,4.8,4,8.4,4c3.6,0,6.5-1.3,8.5-4c2-2.6,3.1-6.1,3.1-10.3V648z"/>
			<path class="st0" d="M771.1,665.5c0-2-0.7-3.7-2.2-4.9c-1.4-1.2-4-2.4-7.6-3.5c-6.3-1.8-11.1-4-14.3-6.5
				c-3.2-2.5-4.8-5.9-4.8-10.3c0-4.3,1.8-7.9,5.5-10.6c3.7-2.8,8.4-4.1,14.2-4.1c5.8,0,10.6,1.5,14.2,4.6c3.7,3.1,5.4,6.9,5.3,11.4
				l-0.1,0.2h-10.3c0-2.4-0.8-4.4-2.5-5.9c-1.6-1.5-3.9-2.3-6.9-2.3c-2.8,0-5,0.6-6.6,1.9c-1.6,1.3-2.3,2.9-2.3,4.8
				c0,1.8,0.8,3.3,2.5,4.4c1.7,1.2,4.5,2.4,8.6,3.7c5.8,1.6,10.3,3.8,13.3,6.4c3,2.7,4.5,6.2,4.5,10.5c0,4.5-1.8,8.1-5.4,10.7
				c-3.6,2.6-8.3,3.9-14.2,3.9c-5.8,0-10.8-1.5-15.1-4.5c-4.3-3-6.4-7.1-6.3-12.5l0.1-0.2h10.3c0,3.1,1,5.5,2.9,6.9
				c1.9,1.5,4.6,2.2,8.1,2.2c2.9,0,5.1-0.6,6.6-1.8C770.3,669.1,771.1,667.5,771.1,665.5z"/>
		</g>
	</g>
</g>
</svg>
