<svg xmlns="http://www.w3.org/2000/svg" viewBox="0 0 564.59 118.6"><defs><style>.cls-1{fill:#fff;}</style></defs><title>mapfre</title><g id="Capa_2" data-name="Capa 2"><g id="svg416"><g id="g579"><path id="path38" class="cls-1" d="M59.3,0A59.3,59.3,0,1,1,0,59.3,59.36,59.36,0,0,1,59.3,0Zm0,5.69A53.62,53.62,0,1,0,112.92,59.3,53.56,53.56,0,0,0,59.3,5.69Z"/><path id="path40" class="cls-1" d="M62.35,70.88V89.16H56.46V70.88h-27a8.78,8.78,0,0,1-4.88-1.22,9.28,9.28,0,0,1-4.46-7.92,2.62,2.62,0,0,1,.2-1.22,32.2,32.2,0,0,1,4.06-11.17,30.74,30.74,0,0,1,7.72-9.14,10.77,10.77,0,0,1,7.51-1.83,10,10,0,0,1,4.67-5.68l1.22-.61a40.59,40.59,0,0,1,14-2.44,39.76,39.76,0,0,1,14,2.44,10.51,10.51,0,0,1,5.69,6.09,8.83,8.83,0,0,1,7.1,1.42A34.43,34.43,0,0,1,98.5,60.32c0,.4.2.81.2,1.22a8.46,8.46,0,0,1-4.47,7.92,10.22,10.22,0,0,1-4.87,1.21H70.07c-1.42.21-5.08.21-7.72.21Zm20.51-26.4a3.13,3.13,0,0,0-3.25-.21,2.81,2.81,0,0,0-1.22,1.42L68.64,62.75a1.58,1.58,0,0,0,0,1.63,1.37,1.37,0,0,0,1.43.81H89.76a3.06,3.06,0,0,0,1.83-.4A2.72,2.72,0,0,0,93,61.94v-.2a27.37,27.37,0,0,0-3.45-9.34,37,37,0,0,0-6.7-7.92ZM36,44.48h0a29.91,29.91,0,0,0-6.5,7.71A32.16,32.16,0,0,0,26,61.54v.2a3.28,3.28,0,0,0,1.42,2.84,3,3,0,0,0,1.82.41h19.7a1.54,1.54,0,0,0,1.43-.81,2.27,2.27,0,0,0,0-1.63L40.62,45.49a2.77,2.77,0,0,0-1.22-1.42,3.4,3.4,0,0,0-3.45.41Zm35.54-6.91A35.08,35.08,0,0,0,59.3,35.34a37.94,37.94,0,0,0-12,2c-.2,0-.2,0-.41.2a3.62,3.62,0,0,0-2,3.25,3.48,3.48,0,0,0,.61,2L57.68,63.77a1.8,1.8,0,0,0,1.62,1,1.83,1.83,0,0,0,1.63-1L73.11,42.85a3.88,3.88,0,0,0,.61-2,3.48,3.48,0,0,0-2.23-3.25Z"/><polygon id="polygon42" class="cls-1" points="184.81 87.53 170.19 57.88 170.19 87.53 148.25 87.53 148.25 28.23 170.19 28.23 184.81 57.88 199.23 28.23 221.16 28.23 221.16 87.53 199.23 87.53 199.23 57.88 184.81 87.53"/><path id="path44" class="cls-1" d="M264.62,37.17l-8.93,31.07h17.87ZM228.27,87.53l17.06-59.3h38.79l17.06,59.3H279.25l-2.85-9.75H253.05l-2.84,9.75Z"/><path id="path46" class="cls-1" d="M335.1,35.13c4.87,0,9.74,2.64,9.74,7.92a9.74,9.74,0,0,1-9.74,9.75h-4.67V35.13Zm13.81-6.9h-41v59.3h21.94V62.75h19.09a17.26,17.26,0,0,0,0-34.52Z"/><polygon id="polygon48" class="cls-1" points="395.82 62.75 395.82 87.53 373.89 87.53 373.89 28.23 432.17 28.23 432.17 37.98 395.82 37.98 395.82 53.01 432.17 53.01 432.17 62.75 395.82 62.75"/><polygon id="polygon50" class="cls-1" points="528.23 37.98 528.23 53.01 564.59 53.01 564.59 62.75 528.23 62.75 528.23 77.78 564.59 77.78 564.59 87.53 506.3 87.53 506.3 28.23 564.59 28.23 564.59 37.98 528.23 37.98"/><path id="path52" class="cls-1" d="M466.9,35.13c4.87,0,9.75,2.64,9.75,7.92a9.75,9.75,0,0,1-9.75,9.75h-4.67V35.13ZM498.18,72.3v0Zm0,.41V72.3a14.84,14.84,0,0,0-14.83-14.42,14.83,14.83,0,1,0,0-29.65H439.89v59.3h22.34V63h4.67a9.75,9.75,0,0,1,9.75,9.75V87.53h21.53Z"/></g></g></g></svg>