<svg xmlns="http://www.w3.org/2000/svg" viewBox="0 0 314 83.75"><defs><style>.cls-1{fill:#fff;}</style></defs><title>seguros-del-estado</title><g id="Capa_2" data-name="Capa 2"><g id="svg416"><g id="g141"><g id="g105"><g id="g103"><path id="path95" class="cls-1" d="M103.17,10.58c-10.8,8.42-24,7.56-37.33,6.26,8.2,4.09,17,8,24.17,8.2S102.52,21.6,103.17,10.58Z"/><path id="path97" class="cls-1" d="M58.28,14.69l-.43-.21c-2.16-1.09-4.09-2.17-6-3a42.88,42.88,0,0,0-12.29-3.9A25,25,0,0,0,25.06,9.72a25.43,25.43,0,0,0-10.8,11.44A44.8,44.8,0,0,0,10.8,32C23.74,13.18,41,13.18,58.28,14.69Z"/><path id="path99" class="cls-1" d="M106.61,0H8A8.13,8.13,0,0,0,0,8V75.77a8.12,8.12,0,0,0,8,8h98.62a8.12,8.12,0,0,0,8-8V8A8.11,8.11,0,0,0,106.61,0ZM93.45,57.63c-6,4.31-23.09,8.64-33.89,8.21-.21,6.68,13.16,9.06,14.89,8.85v2.38H36.25l-.43-2.38c3.46-.44,14.67-1.73,15.32-8.64C4.31,60.45,7.34,38,7.77,38h.7l.38-2.81a44.09,44.09,0,0,1,4.09-14.67c3-5.83,6.91-9.72,11.65-12.08A28.21,28.21,0,0,1,39.91,6.27a45.44,45.44,0,0,1,12.73,3.9c2,.86,3.89,1.94,6,3a27.91,27.91,0,0,0,3.46,1.73H63c14.68,1.51,29.14,2.81,40.37-6.69l1.3-1.08V8.89c-.44,13.37-6.48,17.7-14.89,17.48C81.57,26.16,71,21.2,61.72,16.44c-19-2-38.2-3.24-51.57,19L8.67,38H10.8c.21,3.87,1.73,7.12,4.74,7.33C41,46.46,86.55,46,92.15,46s7.77-2.38,8.42-5.82-4.74-8-8.2-4.09c-2,2.16,1.08,5.61,3,3.89.65-.43,1.51-.65,1.95,0,.43,2.17-2.38,5.83-6.69,2.81-8.64-6,6.69-17.27,12.94-8.41,6.91,9.64-4.11,18.92-10.15,23.23ZM61.73,31.51c5.82,6.91,13.8,8.42,21.14,11.65v1.08l-53.31-.87V41.88s9.94-3.88,14-5.39A32.06,32.06,0,0,0,52,30.88s4.32-5.62,9.71.63Zm-9.07-8.63A4.31,4.31,0,1,1,57,27.19,4.32,4.32,0,0,1,52.66,22.88Z"/><path id="path101" class="cls-1" d="M8.67,38H8.49l-.05.44Z"/></g></g><g id="g139"><path id="path107" class="cls-1" d="M154,34V45.66c0,2.08,1.71,4.31,5.37,4.31h15.85V45.19H162a1.2,1.2,0,0,1-1.05-.41v-3H174.2V37H160.91V34.88a1.23,1.23,0,0,1,1-.41h13.25V29.69H159.34c-3.66,0-5.35,2.25-5.37,4.33Z"/><polygon id="polygon109" class="cls-1" points="179.08 29.75 179.08 49.88 199.33 49.88 199.33 45.12 186.04 45.12 186.04 29.75 179.08 29.75"/><path id="path111" class="cls-1" d="M154.13,8.4V20c0,2.07,1.72,4.31,5.38,4.32h15.84V19.58H162.1a1.21,1.21,0,0,1-1-.42v-3h13.29V11.38H161.07V9.27a1.21,1.21,0,0,1,1-.42h13.25V4.07H159.51C155.85,4.09,154.15,6.33,154.13,8.4Z"/><path id="path113" class="cls-1" d="M131.53,23c1.91,1.15,4.65,1.75,8.13,1.75a21.26,21.26,0,0,0,6-.72,8.46,8.46,0,0,0,4-2.33,5.22,5.22,0,0,0,1.46-3.55,5.05,5.05,0,0,0-1.26-3.5,8,8,0,0,0-3.25-2.13,34.4,34.4,0,0,0-5.91-1.38c-3.26-.54-4.31-1-4.63-1.16s-.4-.3-.4-.45,0-.23.42-.43a7.16,7.16,0,0,1,3.28-.6,6.59,6.59,0,0,1,3,.53,2.21,2.21,0,0,1,1.08,1.55l.15.63,6.81-.22,0-.81a5.74,5.74,0,0,0-3-4.76c-1.83-1.12-4.42-1.66-7.92-1.66a19.2,19.2,0,0,0-5.44.69,8.09,8.09,0,0,0-3.66,2.11,4.64,4.64,0,0,0-1.35,3.21,5.15,5.15,0,0,0,2.81,4.43,18.69,18.69,0,0,0,6.31,2c2.2.37,3.62.65,4.22.81a3.79,3.79,0,0,1,1.6.65.64.64,0,0,1,.27.5c0,.15,0,.58-.9,1.1a7.2,7.2,0,0,1-3.48.65,6.65,6.65,0,0,1-3.46-.76,3.35,3.35,0,0,1-1.53-2.21l-.17-.65-6.76.47.15.88A7.42,7.42,0,0,0,131.53,23Z"/><path id="path115" class="cls-1" d="M185.09,23.4a20.4,20.4,0,0,0,7.53,1.28,25.7,25.7,0,0,0,6.67-.9,17.34,17.34,0,0,0,5.1-2.13l.35-.23V12.75H191.61V17.5h6.11v1.07a13.88,13.88,0,0,1-2.3.85,12.27,12.27,0,0,1-3.16.43,8,8,0,0,1-5-1.48A5.17,5.17,0,0,1,185.48,14a4.65,4.65,0,0,1,1.75-4,8.22,8.22,0,0,1,5.08-1.41,7.53,7.53,0,0,1,3.48.7,3.45,3.45,0,0,1,1.73,1.77l.24.58,6.87-.91-.29-.92a7.61,7.61,0,0,0-4-4.5,17.56,17.56,0,0,0-8.08-1.55,19.58,19.58,0,0,0-6.61,1,11.54,11.54,0,0,0-5.43,3.75,9.1,9.1,0,0,0-1.89,5.68,9.62,9.62,0,0,0,1.69,5.43,10.72,10.72,0,0,0,5,3.8Z"/><path id="path117" class="cls-1" d="M230.77,19.69a18.4,18.4,0,0,0,.47-5V4.07h-7V15.22a12.63,12.63,0,0,1-.22,3,1.9,1.9,0,0,1-1,1.1,6.49,6.49,0,0,1-3,.56,6.76,6.76,0,0,1-3.15-.6,2.35,2.35,0,0,1-1.25-1.33,13.61,13.61,0,0,1-.16-2.9V4.09h-7V14.85a16.12,16.12,0,0,0,.58,5,5.64,5.64,0,0,0,1.73,2.41A9.71,9.71,0,0,0,214.18,24a20.48,20.48,0,0,0,6,.65,19.54,19.54,0,0,0,5.32-.6,9.48,9.48,0,0,0,3.4-1.67,5.63,5.63,0,0,0,1.88-2.72Z"/><path id="path119" class="cls-1" d="M312.74,14.62a8.12,8.12,0,0,0-3.25-2.13,35.44,35.44,0,0,0-5.91-1.39c-3.26-.54-4.31-.95-4.63-1.15s-.4-.31-.4-.45,0-.23.4-.43a7.21,7.21,0,0,1,3.28-.6,6.46,6.46,0,0,1,3,.53,2.21,2.21,0,0,1,1.08,1.55l.15.64,6.81-.21,0-.81a5.72,5.72,0,0,0-3-4.76c-1.82-1.12-4.42-1.66-7.92-1.66a19.23,19.23,0,0,0-5.44.68,8.09,8.09,0,0,0-3.66,2.11,4.67,4.67,0,0,0-1.35,3.21,5.16,5.16,0,0,0,2.81,4.44,18.49,18.49,0,0,0,6.33,2c2.2.38,3.62.65,4.21.81a3.79,3.79,0,0,1,1.59.65.62.62,0,0,1,.27.51c0,.14,0,.57-.9,1.1a7.2,7.2,0,0,1-3.48.65,6.75,6.75,0,0,1-3.46-.76,3.35,3.35,0,0,1-1.53-2.22l-.17-.65-6.76.47.15.88a7.43,7.43,0,0,0,3.59,5.32c1.91,1.16,4.65,1.75,8.13,1.75a20.9,20.9,0,0,0,6-.72,8.38,8.38,0,0,0,4-2.33A5.22,5.22,0,0,0,314,18.06a5,5,0,0,0-1.26-3.44Z"/><path id="path121" class="cls-1" d="M170.43,63.44a33.75,33.75,0,0,0-5.91-1.39c-3.27-.54-4.31-1-4.64-1.15s-.39-.31-.39-.45,0-.24.39-.44a7.38,7.38,0,0,1,3.29-.59,6.62,6.62,0,0,1,3,.52,2.23,2.23,0,0,1,1.08,1.55l.14.65,6.82-.22,0-.81a5.76,5.76,0,0,0-3-4.76c-1.82-1.11-4.41-1.66-7.91-1.66a19.2,19.2,0,0,0-5.44.69,8.09,8.09,0,0,0-3.66,2.11,4.61,4.61,0,0,0-1.36,3.21,5.17,5.17,0,0,0,2.82,4.43,18.32,18.32,0,0,0,6.31,2c2.25.39,3.64.66,4.21.81a3.52,3.52,0,0,1,1.59.65.65.65,0,0,1,.27.5c0,.15,0,.58-.9,1.1a7.17,7.17,0,0,1-3.48.67,6.65,6.65,0,0,1-3.46-.76,3.35,3.35,0,0,1-1.53-2.22l-.17-.64-6.76.46.15.89a7.42,7.42,0,0,0,3.59,5.32c1.91,1.17,4.65,1.74,8.13,1.74a20.9,20.9,0,0,0,6-.72,8.45,8.45,0,0,0,4-2.32A5.22,5.22,0,0,0,174.92,69a5.1,5.1,0,0,0-1.26-3.5,7.94,7.94,0,0,0-3.23-2.09Z"/><polygon id="polygon123" class="cls-1" points="191.23 75.3 191.23 59.8 199.06 59.8 199.06 55.02 176.43 55.02 176.43 59.8 184.28 59.8 184.28 75.3 191.23 75.3"/><path id="path125" class="cls-1" d="M128,59.35V71c0,2.07,1.72,4.31,5.38,4.33h15.84V70.54H136a1.24,1.24,0,0,1-1-.41v-3h13.29V62.34H134.93V60.23a1.21,1.21,0,0,1,1-.42h13.25V55H133.37C129.71,55,128,57.27,128,59.35Z"/><path id="path127" class="cls-1" d="M242.74,16.57H243a12.55,12.55,0,0,1,2.49.18,3.35,3.35,0,0,1,1.31.65,29.09,29.09,0,0,1,2.72,2.65l4.1,4.3h8.52l-4.41-5a25.7,25.7,0,0,0-3.16-3.14c-.25-.18-.52-.38-.79-.54A8.82,8.82,0,0,0,257,14.24a5,5,0,0,0,2-4.11,5.1,5.1,0,0,0-1.35-3.48,6.9,6.9,0,0,0-3.48-2,27.19,27.19,0,0,0-6.36-.52h-12V24.37h7v-7.8Zm0-7.72h3.37c2.65,0,3.53,0,3.8.06a3.3,3.3,0,0,1,1.61.55,1.07,1.07,0,0,1,.41.91,1.27,1.27,0,0,1-.3.84,2.21,2.21,0,0,1-1.1.56,28,28,0,0,1-4.62.2h-3.15V8.85Z"/><path id="path129" class="cls-1" d="M285.32,6.47c-2.47-1.8-5.79-2.72-9.84-2.72a20.67,20.67,0,0,0-5.94.77,11.92,11.92,0,0,0-3.66,1.81,10.55,10.55,0,0,0-2.68,2.79,9.77,9.77,0,0,0-1.34,5.21A9,9,0,0,0,265.67,22c2.45,1.78,5.77,2.7,9.86,2.7s7.34-.92,9.79-2.7a9.13,9.13,0,0,0,3.82-7.72A9.08,9.08,0,0,0,285.32,6.47ZM282,14.15a5,5,0,0,1-1.75,4.24,8.54,8.54,0,0,1-9.52,0A4.94,4.94,0,0,1,269,14.21,4.92,4.92,0,0,1,270.7,10a7.65,7.65,0,0,1,4.81-1.42,7.51,7.51,0,0,1,4.8,1.41A4.83,4.83,0,0,1,282,14.15Z"/><path id="path131" class="cls-1" d="M213.33,55l-2.57,0c-8.08,0-9.79,3.77-9.83,6.91V75.3h7V70.05h8.62V75.3h7V61.91c0-2.56-1.34-6.87-10.13-6.93Zm3.16,6.93v3.46h-8.62l0-3.46A1.82,1.82,0,0,1,209,60.32a7.41,7.41,0,0,1,6.45,0A1.71,1.71,0,0,1,216.49,61.91Z"/><path id="path133" class="cls-1" d="M245.93,57.25a10.87,10.87,0,0,0-4.31-1.85,27.36,27.36,0,0,0-5.19-.38H225.86V75.3h10.86a23,23,0,0,0,4.9-.41,12.12,12.12,0,0,0,4-1.61,9.32,9.32,0,0,0,3.1-3.6,9.9,9.9,0,0,0,.9-4.33,10.74,10.74,0,0,0-1-4.76A9,9,0,0,0,245.93,57.25ZM232.8,59.8h1.61a34.31,34.31,0,0,1,4.25.16,5.22,5.22,0,0,1,2.15.76A3.3,3.3,0,0,1,242,62.19a7.3,7.3,0,0,1,.47,3,8,8,0,0,1-.48,3.1,3.13,3.13,0,0,1-1.09,1.44,5,5,0,0,1-1.87.67,19.94,19.94,0,0,1-3.08.16h-3.19V59.8Z"/><path id="path135" class="cls-1" d="M275.42,57.42c-2.47-1.81-5.79-2.73-9.84-2.73a20.53,20.53,0,0,0-5.93.78,12,12,0,0,0-3.66,1.8,10.32,10.32,0,0,0-2.69,2.8A9.69,9.69,0,0,0,252,65.28a9,9,0,0,0,3.82,7.64c2.45,1.79,5.77,2.7,9.86,2.7s7.34-.91,9.79-2.7a9.1,9.1,0,0,0,3.8-7.72A9.06,9.06,0,0,0,275.42,57.42Zm-3.3,7.68a5,5,0,0,1-1.73,4.23,7.31,7.31,0,0,1-4.74,1.45,7.56,7.56,0,0,1-4.78-1.46,5,5,0,0,1-1.76-4.17A4.94,4.94,0,0,1,260.82,61a8.84,8.84,0,0,1,9.61,0,4.88,4.88,0,0,1,1.69,4.15Z"/><path id="path137" class="cls-1" d="M150.83,35.12a9,9,0,0,0-2.77-3.32,11.16,11.16,0,0,0-4.31-1.86,27.36,27.36,0,0,0-5.19-.38H128V49.85h10.86a22.26,22.26,0,0,0,4.9-.42,12.33,12.33,0,0,0,4-1.6,9.27,9.27,0,0,0,3.1-3.61,9.93,9.93,0,0,0,.9-4.33A10.76,10.76,0,0,0,150.83,35.12ZM135,34.32h1.61a33.52,33.52,0,0,1,4.25.17,5.43,5.43,0,0,1,2.15.75,3.4,3.4,0,0,1,1.22,1.48,7.3,7.3,0,0,1,.47,3,7.81,7.81,0,0,1-.49,3.1,3.05,3.05,0,0,1-1.08,1.44,5.46,5.46,0,0,1-1.87.67,21.49,21.49,0,0,1-3.09.16h-3.19V34.32Z"/></g></g></g></g></svg>