<svg xmlns="http://www.w3.org/2000/svg" viewBox="0 0 454.39 100.43"><defs><style>.cls-1{fill:#fff;}</style></defs><title>solidaria</title><g id="Capa_2" data-name="Capa 2"><g id="svg416"><g id="g562"><path id="path262" class="cls-1" d="M70.26,40c-.55-9.55-10.39-18.56-21.61-18.56S28.43,29,27.32,39.76Z"/><path id="path264" class="cls-1" d="M27.32,44.33c.55,9.56,10.39,18.56,21.61,18.56S69.15,55.41,70.26,44.6Z"/><path id="path266" class="cls-1" d="M25.52,99h-24S15.68,86.3,16.93,84.64,22.75,75.91,18,70.51c0,0-15-17-16.49-19.67C-1.36,45.57-.11,40.17,4.74,34.63,9.73,28.81,40.89,0,40.89,0l8,7.76s-22.86,21.61-26.6,27.7-3.19,11.22,1.39,16.21,15,15.1,15,15.1,9,9,2.63,16.48A190,190,0,0,1,25.52,99Z"/><path id="path268" class="cls-1" d="M73.45,99h24S83.28,86.3,82,84.64s-5.81-8.73-1.1-14.13c0,0,15-17,16.48-19.67,2.91-5.27,1.66-10.67-3.19-16.21C89,28.54,57.79,0,57.79,0l-8,7.76s22.85,21.61,26.59,27.7S79.54,46.68,75,51.67s-15,15.1-15,15.1-9,9-2.63,16.48C64,90.59,73.45,99,73.45,99Z"/><path id="path270" class="cls-1" d="M147.14,86.85c0-3.6-.55-6.23-3.88-6.23C137,80.34,137,88,137.31,91.29c.27,8.59,7.61,8.59,7.61,8.59V97c-4.15-.28-3.6-3.6-3.6-3.6a6.73,6.73,0,0,0,5.82-6.52Zm-6.51,3.47s-.83-6.24,2.08-6.51c1.24-.28,1.24,1.24,1.24,2.35a4.68,4.68,0,0,1-.83,2.36c-.14.41-.69,1-2.49,1.8Z"/><path id="path272" class="cls-1" d="M134.4,99.46V70.92h-4.16v9.15c-11.77,5.26-6.51,19.11-3.46,19.39s3.88,0,3.88,0l.27-1.11.28,1.11Zm-4.16-7.34c-.28,1.8.55,4.43-1.8,4.43-1.25,0-1.52-1.8-1.52-3.88a24.47,24.47,0,0,1,.27-4.43c.28-1.11.56-2.35,1.25-2.91a6,6,0,0,1,2.08-1.25c-.56-.13-.28,6.38-.28,8Z"/><path id="path274" class="cls-1" d="M139.8,10H133L126.5,51.12h5.4l1.53-7.21h5.68l1.52,7.48H146Zm-6.23,29,1.8-14.69h1.52l1.52,14.69Z"/><path id="path276" class="cls-1" d="M158.92,27.57V23.13s-4.71-.27-6.79.28a5.91,5.91,0,0,0-4.85,5.4c-.28,3.6,1.25,5.68,3.6,8A25.26,25.26,0,0,1,155,41.7c.55,1.24,1.52,4.15-1.53,4.43h-3.6l-2.35,4.71s6.92.28,8.58,0c2.64-.83,3.88-2.63,4.71-5.68.56-2.08,0-5.13-2.63-8.59l-4.85-5.68s-2.07-3.32,1.53-3.6Z"/><path id="path278" class="cls-1" d="M336.64,15.93V9.42a43.27,43.27,0,0,0-8,.28c-2.63.55-5.4,3.6-5.68,8-.28,5.4,2.91,9.28,5.4,12.88,2.91,4.16,2.91,4.85,3.6,6.79s1.8,6-1.8,6.79H325.7l-2.91,6.93s8,0,10.11-.56c3.05-1,4.85-3.6,5.68-8.31.56-3-.55-8-2.63-11.08-2.08-3.33-5.68-7.48-6.51-9.84s-1-5.12,2.35-5.4Z"/><path id="path280" class="cls-1" d="M177.34,33c-.28-5.4-.83-9.28-5.68-9.56-9.28-.55-9.28,10.81-9,16.35C163.21,52.92,174,52.64,174,52.64V48.21c-6.51-.56-5.4-5.68-5.4-5.68C177.62,41,177.34,33,177.34,33Zm-9.84,5s-1.24-9.56,2.91-9.84c2.08-.28,2.08,2.08,2.08,3.6a6.3,6.3,0,0,1-1,3.33c-.69,1-1.38,1.52-4,2.91Z"/><path id="path282" class="cls-1" d="M195.49,23.69a32.85,32.85,0,0,0-7.76,0c-5.68.83-6.93,6.79-7.48,9.28a22.54,22.54,0,0,0,.28,7.48c1.24,8.59,9.83,11.08,9.83,11.08a5.75,5.75,0,0,1,0,3.33c-.55,1.52-4.71,2.07-4.71,2.07v4.16a12.33,12.33,0,0,0,4.16.28c5.4-.56,5.4-5.13,5.68-6.51Zm-5,22.44a7.4,7.4,0,0,1-4.71-3.6c-1.25-1.8-1.52-4.71-1.52-8,0-1.52.55-3.88,1.8-4.85a7.12,7.12,0,0,1,4.15-1.52v18Z"/><path id="path284" class="cls-1" d="M199.09,23.41h5.4V42.53S204.21,47,207.12,47c1.25,0,2.36-.28,2.63-4.16V23.69h5.13v20.5c0,2.91-.83,8.31-7.76,8.31-2.91,0-7.76-1.25-8-7.76s0-21.33,0-21.33Z"/><path id="path286" class="cls-1" d="M218.76,23.13v28h5.12V31.72s.28-4.43,6-3.6V23.41s-5.13-.83-6.23,2.63V23C223.61,23.13,218.76,23.13,218.76,23.13Z"/><path id="path288" class="cls-1" d="M286.77,23.13v28h5.13V31.72s.28-4.43,6-3.6V23.41s-5.13-.83-6.24,2.63V23h-4.85Z"/><path id="path290" class="cls-1" d="M418.23,23.13v28h5.13V31.72s.28-4.43,6-3.6V23.41s-5.13-.83-6.24,2.63V23h-4.85Z"/><path id="path292" class="cls-1" d="M244.66,28.54c-.27-1.8-.55-5.13-5.68-5.41l-5.95.28V27h4.43s2.35,1.53,1,3c-1.25,1.8-13.16,8.31-6.51,17.87,1.52,2.08,3.6,3,6.92,2.91l.56-1,.27,1h4.85c.14,0,.14-20.5.14-22.3Zm-5,17.17a1.86,1.86,0,0,1-2.36,1c-2.08-.27-2.63-2.63-2.35-5.68.27-3.32,2.35-4.71,4.84-6C239.68,35.05,240,44.6,239.68,45.71Z"/><path id="path294" class="cls-1" d="M414.35,29.09c-.27-1.8-.55-5.13-5.67-5.4l-6,.27v3.61h4.43a1.78,1.78,0,0,1,1,3c-1.25,1.8-13.16,8.32-6.51,17.87,1.52,2.08,3.6,3.05,6.93,2.91l.55-1,.28,1h4.85c.13,0,.27-20.5.13-22.3Zm-5,16.76a1.86,1.86,0,0,1-2.36,1c-2.08-.28-2.63-2.63-2.35-5.68.27-3.32,2.35-4.71,4.85-6A91.75,91.75,0,0,1,409.37,45.85Z"/><path id="path296" class="cls-1" d="M454.39,29.09c-.28-1.8-.56-5.13-5.68-5.4l-6,.27v3.61h4.43s2.36,1.52,1,3c-1.24,1.53-13.16,8.32-6.51,17.87,1.53,2.08,3.61,3.05,6.93,2.91l.55-1,.28,1h4.85c.14,0,.14-20.5.14-22.3Zm-4.85,16.76a1.86,1.86,0,0,1-2.36,1c-2.07-.28-2.63-2.63-2.35-5.68.28-3.32,2.35-4.71,4.85-6C449.54,35.32,449.54,45.16,449.54,45.85Z"/><path id="path298" class="cls-1" d="M313,28.54c-.27-1.8-.55-5.13-5.68-5.41l-5.95.28V27h4.43s2.36,1.53,1,3c-1.25,1.8-13.16,8.31-6.51,17.87,1.52,2.08,3.6,3,6.93,2.91l.55-1,.28,1h4.85c.13,0,.27-20.5.13-22.3Zm-5,17.17a1.86,1.86,0,0,1-2.36,1c-2.08-.27-2.63-2.63-2.35-5.68.27-3.32,2.35-4.71,4.85-6A97.77,97.77,0,0,1,308,45.71Z"/><path id="path300" class="cls-1" d="M264.47,51.12V10l-5.12.28-.28,12.88c-17.59,7.21-10.11,27.71-5.68,28,4.71.27,5.68,0,5.68,0l.55-1.53.56,1.53Zm-5.4-10.67c-.28,2.63,0,6.79-3.88,6.51-1.8,0-2.35-2.63-2.35-5.4a54.72,54.72,0,0,1,.27-6.51,9.74,9.74,0,0,1,1.8-4.44,11.54,11.54,0,0,1,3.88-2.35C259.07,28.54,259.35,38,259.07,40.45Z"/><path id="path302" class="cls-1" d="M398,50.56V9.42l-5.13.28-.27,12.88c-17.32,7.2-10.12,27.7-5.68,28,4.71.28,5.68,0,5.68,0l.55-1.52.55,1.52ZM392.88,39.9c-.27,2.63,0,6.78-3.88,6.51-1.8,0-2.35-2.64-2.35-5.41a46.4,46.4,0,0,1,.28-6.23,9.64,9.64,0,0,1,1.8-4.43A11.61,11.61,0,0,1,392.61,28C392.61,28.12,392.88,37.68,392.88,39.9Z"/><polygon id="polygon304" class="cls-1" points="361.71 9.7 366.7 9.7 366.7 50.84 361.99 50.84 361.71 9.7"/><polygon id="polygon306" class="cls-1" points="436.52 51.81 431.95 51.81 431.95 23.69 436.52 23.69 436.52 51.81"/><rect id="rect308" class="cls-1" x="431.67" y="12.33" width="5.13" height="6.51"/><polygon id="polygon310" class="cls-1" points="376.81 51.81 371.83 51.81 371.83 23.69 376.81 23.69 376.81 51.81"/><rect id="rect312" class="cls-1" x="371.83" y="12.33" width="5.13" height="6.51"/><path id="path314" class="cls-1" d="M357.42,28.26c-.28-3.05-4.15-5.13-7.76-5.13-7.48,1-7.2,6-7.2,6s-.55,13.44.55,17.59,6.79,4.44,6.79,4.44c6.93-.28,8-4.71,8-6.52-.14-2.35,0-10.8-.42-16.34Zm-4.71,15.51s-.28,4.16-2.91,3.33c0,0-2.08.28-2.63-2.63l-.28-12.89s-.27-4.15,2.91-4.15c0,0,2.36-.83,2.91,3.6Z"/><path id="path316" class="cls-1" d="M283.17,28.54c-.28-3.05-4.15-5.13-7.76-5.13-7.48,1-7.2,6-7.2,6s-.55,13.43.56,17.59,6.78,4.43,6.78,4.43c6.93-.27,8-4.71,8-6.51-.14-2.35.14-10.8-.42-16.34Zm-4.71,15.51s-.27,4.16-2.91,3.33c0,0-2.07.27-2.63-2.64l-.28-12.88s-.27-4.16,2.91-4.16c0,0,2.36-.83,2.91,3.61Z"/><path id="path318" class="cls-1" d="M250.48,84c-.28-1.25-.55-3.61-3.88-3.61h-4.15V83h3.18a1.36,1.36,0,0,1,.83,2.07c-.83,1.25-9.14,5.68-4.43,12.33,1.11,1.53,2.63,2.08,5,2.08l.27-.83.28.83H251c-.41,0-.41-14.13-.55-15.51ZM247,95.72a1.6,1.6,0,0,1-1.53.83c-1.24-.28-1.8-1.8-1.52-3.88.28-2.35,1.52-3.18,3.46-4.15-.14-.14-.14,6.65-.41,7.2Z"/><path id="path320" class="cls-1" d="M176,84.22c-.27-2.08-2.63-3.46-5-3.46-4.71.55-4.44,3.88-4.44,3.88s-.27,8.86.28,11.5S171,99,171,99c4.43-.27,5-2.9,5-4.15A44.72,44.72,0,0,0,176,84.22ZM173,94.2s-.27,2.63-1.8,2.07c0,0-1.24.28-1.52-1.52l-.28-8.31s0-2.63,1.53-2.63c0,0,1.52-.56,1.8,2.35v8Z"/><path id="path322" class="cls-1" d="M196.59,84.22c-.27-2.08-2.63-3.46-5-3.46-4.71.55-4.44,3.88-4.44,3.88s-.27,8.86.28,11.5,4.16,2.9,4.16,2.9c4.43-.27,5-2.9,5-4.15A66.94,66.94,0,0,0,196.59,84.22Zm-2.91,10s-.27,2.63-1.8,2.07c0,0-1.24.28-1.52-1.52l-.28-8.31s0-2.63,1.53-2.63c0,0,1.52-.56,1.8,2.35v8Z"/><polygon id="polygon324" class="cls-1" points="179.28 70.92 183.02 70.92 183.02 99.18 179.56 99.18 179.28 70.92"/><polygon id="polygon326" class="cls-1" points="234.41 80.9 238.15 80.9 238.15 99.18 234.41 99.18 234.41 80.9"/><path id="path328" class="cls-1" d="M203.38,79.79a3.89,3.89,0,0,0-3.6,4.43v15h2.91V85.33c0-1.52,0-2.08,1.52-2.35,2.08-.28,2.64,1.1,2.64,2.63V99.46h2.9V85.61c0-1.25.28-2.63,2.64-2.63,1.8,0,1.52.83,1.52,2.35V99.18h2.91v-15s.55-3.88-3.88-4.43c0,0-3.46-.28-4.71,2.08a3.74,3.74,0,0,0-2.35-1.8,4.36,4.36,0,0,0-2.5-.28Z"/><path id="path330" class="cls-1" d="M223.47,80.62V71.48h-2.91v28a41.71,41.71,0,0,0,6,0c1-.28,5-1.25,5-7.62C231.64,89.49,233.16,81.59,223.47,80.62Zm4.71,10.94A4.8,4.8,0,0,1,224,96V84.5C228.45,84.22,228.45,89.76,228.18,91.56Z"/><path id="path332" class="cls-1" d="M164.18,96.55s-7.62-1.52-7.34-12.33c0-3.18.27-10,8-10.66V69.4s-12.74-.28-12.05,15.1c0,0-1.11,13.58,11.22,15.93V96.55Z"/><rect id="rect334" class="cls-1" x="234.41" y="71.89" width="3.6" height="5.54"/></g></g></g></svg>