<svg xmlns="http://www.w3.org/2000/svg" viewBox="0 0 463.93 164.18"><defs><style>.cls-1{fill:#fff;}</style></defs><title>sura</title><g id="Capa_2" data-name="Capa 2"><g id="svg416"><g id="g569"><path id="path28" class="cls-1" d="M276.38,39.75h-4c-20.81,0-40.55,15.47-41.35,45.35-.8,27.21,13.34,46.15,37.35,46.15,19.74,0,26.68-13.6,26.68-13.6,1.06,9.07,6.13,12,16,12V39.75Zm17.88,53.09c0,12.54-7.21,24.27-22.68,24.27-13.87,0-23.74-9.33-23.21-31.74.53-21.34,10.94-30.95,24.54-30.95H294V92.84Z"/><path id="path30" class="cls-1" d="M136.86,39.22v62.42c0,9.07-7.47,13.61-17.34,13.61-10.41,0-17.34-4.54-17.34-13.61V55c0-13.34-8.27-15.74-15.74-15.74v66.16c0,16.54,14.94,24.81,32.54,24.81,17.08,0,33.62-8.27,33.62-24.81V56.82c0-13.07-4.8-17.6-15.74-17.6Z"/><path id="path32" class="cls-1" d="M175.27,73.63v55.49H191v-56c0-12,6.41-18.94,18.41-18.94H214c13.6,0,16-7.21,16-14.68H208.09c-19.48-.26-32.82,10.94-32.82,34.15Z"/><path id="path34" class="cls-1" d="M46.15,79.5,27,74.16C21.61,72.83,16.81,70.43,16.81,64c0-6.67,4-9.87,12.54-9.87H46.42C53.89,54.16,63,51.75,63,39.48H31C11.21,39.48,0,49.35,0,63.76,0,77.1,8.54,84.57,23.48,88.57l16.8,4.53c6.94,1.87,9.34,6.14,9.34,10.68,0,6.67-4.27,10.67-14.67,10.93l-32,.27v14.41H35.48c19.74,0,31.21-10.67,31.21-24.55-.26-14.4-5.86-21.34-20.54-25.34Z"/><path id="path36" class="cls-1" d="M398.83,149.13c.27,0,.27.26.27.53-2.14,5.34-4.8,9.34-9.87,12-8.81,4.26-13.34,1.86-13.87,1.6-.27,0-.27-.27-.27-.54a.26.26,0,0,1,.27-.26c4-1.34,15.47-5.61,23.47-13.34Zm1.07-15.74a165.61,165.61,0,0,1-29.08,12c-12.8,3.74-23.21,5.34-30.15,4.54-6.13-.8-9.07-3.74-9.87-4.8,0-.27-.26-.27-.26-.54s.26-.26.53-.53l2.4-.27a238.3,238.3,0,0,0,25.08-2.13c12.27-1.87,32.28-5.34,41.35-8.81Zm.8,5.33c.27,0,.27.27.27.54a39.33,39.33,0,0,1-8.27,7.47,113.17,113.17,0,0,1-12.54,7.47,65.68,65.68,0,0,1-13.34,5.33c-5.07,1.34-9.34,1.87-12.81,1.34a12.44,12.44,0,0,1-7.2-2.67s-.27-.27,0-.27c0-.27.27-.27.53-.53a202,202,0,0,0,31-7.74C387.09,146.46,395.1,142.73,400.7,138.72Zm49.09-44.55c.26,0,.26.27.26.54-4.53,3.73-24.81,20.54-35.74,29.61l-.27.26c-3.2,2.41-5.34,2.94-5.6-2.4a10.91,10.91,0,0,0-.27-2.4c-.27-1.06.27-1.06.53-1.33,3.47-2.14,10.41-5.87,15.74-9.34,9.61-5.6,20.81-12.27,25.35-14.94Zm-14.94,22.41c.26,0,.26.27.26.53-4.27,5.07-20.54,23-27.74,30.68-.8.8-1.07.54-.8-.26a47.33,47.33,0,0,0,1.87-6.14,6.86,6.86,0,0,1,1.6-3.73c9.33-8,18.4-16,24.81-21.08Zm20-31.21h.54a.37.37,0,0,1,0,.53c-2.14,1.34-47.49,20-47.75,20.28-2.41.8-5.34,1.33-7.21-2.14-.8-1.33-1.6-2.67-1.87-3.2-.26-.27-.53-.8.81-1.07,0,0,12.8-3.46,24-6.4,12.8-3.2,27.47-6.93,31.47-8Zm4.81-6.4a.25.25,0,0,1,.26.26.26.26,0,0,1-.26.27c-3.47.53-66.43,9.07-67,9.34h-2.14c-2.93-.27-5.87-1.87-8.54-4.54a15.9,15.9,0,0,1-2.93-4.53v-.54c0-.26.27-.26.53-.26h80Zm4-5.61a.27.27,0,0,1,0,.54c-9.34-.8-92-6.41-92-6.41-.8,0-1.33-.26-2.13-.26a18.34,18.34,0,0,1-12-12.27v-.54c0-.26.27-.26.53-.26C358,54.16,455.65,71.76,463.66,73.36ZM446.58,57.09c0,.53,0,.53-.53.53-3.47-1.86-11.47-5.6-19.74-9.6-6.94-3.47-53.62-25.34-56.82-26.94l-5.61-2.94c-.8-.53-1.6-.8-2.4-1.33A17,17,0,0,1,357,13.07a16.88,16.88,0,0,1-2.4-4.27A18.53,18.53,0,0,1,353.48.27a.26.26,0,0,1,.27-.27h.53l5.87,3.47,3.2,1.87,17.07,10.4c24,14.67,57.36,36,66.17,41.35Zm10.14,9.6A.26.26,0,0,1,457,67c0,.27-.27.27-.53.27-2.67-.8-8.27-2.4-15.21-4.27-16-4.27-76.56-20.54-77.63-20.81h-.27a18.27,18.27,0,0,1-8.8-5.33,15,15,0,0,1-1.87-2.41c-2.13-3.2-2.4-7.73-2.67-8.53a.26.26,0,0,1,.27-.27.36.36,0,0,1,.53,0l9.87,4C384.16,38.42,446.58,62.69,456.72,66.69Z"/></g></g></g></svg>