<svg version="1.1"
	 xmlns="http://www.w3.org/2000/svg" xmlns:xlink="http://www.w3.org/1999/xlink" xmlns:a="http://ns.adobe.com/AdobeSVGViewerExtensions/3.0/"
	 x="0px" y="0px" width="19.9px" height="20px" viewBox="0 0 19.9 20" style="overflow:scroll;enable-background:new 0 0 19.9 20;"
	 xml:space="preserve">
<style type="text/css">
	.st0{fill:#FFFFFF;}
</style>
<defs>
</defs>
<path class="st0" d="M17,2.9C15.1,1,12.6,0,10,0C4.5,0,0.1,4.4,0.1,9.9c0,1.7,0.5,3.5,1.3,5L0,20l5.3-1.4c1.4,0.8,3.1,1.2,4.7,1.2h0
	l0,0c5.5,0,9.9-4.4,9.9-9.9C19.9,7.3,18.9,4.8,17,2.9L17,2.9z M10,18.2L10,18.2c-1.5,0-2.9-0.4-4.2-1.1l-0.3-0.2l-3.1,0.8l0.8-3
	L3,14.3C2.2,13,1.8,11.5,1.8,9.9c0-4.5,3.7-8.2,8.2-8.2c2.2,0,4.3,0.9,5.8,2.4c1.6,1.6,2.4,3.6,2.4,5.8C18.2,14.5,14.5,18.2,10,18.2
	z M14.5,12c-0.2-0.1-1.5-0.7-1.7-0.8c-0.2-0.1-0.4-0.1-0.6,0.1c-0.2,0.2-0.6,0.8-0.8,1c-0.1,0.2-0.3,0.2-0.5,0.1
	c-0.2-0.1-1-0.4-2-1.2c-0.7-0.7-1.2-1.5-1.4-1.7C7.4,9.1,7.6,9,7.7,8.9C7.8,8.8,7.9,8.6,8,8.5S8.2,8.2,8.3,8c0.1-0.2,0-0.3,0-0.4
	C8.2,7.5,7.7,6.3,7.5,5.8C7.3,5.3,7.1,5.4,7,5.3c-0.1,0-0.3,0-0.5,0C6.3,5.3,6,5.4,5.8,5.6C5.6,5.9,5,6.5,5,7.7s0.9,2.4,1,2.6
	c0.1,0.2,1.7,2.7,4.2,3.7c0.6,0.3,1.1,0.4,1.4,0.5c0.6,0.2,1.1,0.2,1.6,0.1c0.5-0.1,1.5-0.6,1.7-1.2s0.2-1.1,0.1-1.2
	C14.9,12.2,14.8,12.1,14.5,12L14.5,12z"/>
</svg>
